<svg width="267" height="86" viewBox="0 0 267 86" fill="none" xmlns="http://www.w3.org/2000/svg">
<path d="M39.5606 49.2848C38.7169 47.9086 37.9114 46.5325 37.0392 45.1991C35.9429 43.5182 34.7894 41.8753 33.9315 40.0515C33.1403 38.3563 32.7066 36.5753 32.5016 34.7135C32.2538 32.5325 32.6637 30.4564 33.3453 28.404C33.6836 27.3897 33.9553 26.3468 33.9744 25.2707C34.003 23.904 33.6121 22.6278 33.0259 21.4135C32.7923 20.9326 32.5397 20.4564 32.2871 19.9659C32.3348 19.9659 32.3872 19.9517 32.4206 19.9659C34.2651 20.7326 36.0382 21.6183 37.5968 22.8944C39.7655 24.6754 41.0667 26.9277 41.4003 29.7468C41.5958 31.3849 41.4814 33.0135 41.224 34.6278C40.9571 36.3135 40.6234 37.9849 40.3136 39.6658C40.061 41.0515 39.8989 42.4515 39.9657 43.8658C40.0229 45.042 40.2993 46.1611 40.9666 47.1705C42.0438 46.1753 42.8827 45.0277 43.4689 43.7039C44.4174 41.5706 44.6653 39.323 44.5604 37.0039C44.4603 34.7706 43.9026 32.6421 43.2401 30.5278C42.6729 28.6992 42.1677 26.8516 41.9437 24.9468C41.7674 23.4088 41.7435 21.8659 41.8627 20.3231C42.0152 18.3326 42.3917 16.3897 43.0352 14.504C43.65 12.6993 44.589 11.0945 45.976 9.78499C47.0294 8.78977 48.2257 7.98501 49.5507 7.41832C50.9139 6.83264 52.32 6.35645 53.7118 5.83264C53.7452 5.81836 53.7881 5.82312 53.8262 5.81836C53.2971 6.39931 52.7537 6.96124 52.2438 7.55642C51.0617 8.93262 50.342 10.5183 50.1752 12.3469C50.0322 13.8993 50.2657 15.4136 50.7185 16.8802C51.362 18.9564 52.096 20.9992 52.7823 23.0612C53.259 24.4849 53.6737 25.9373 53.7833 27.4421C53.85 28.3564 53.7881 29.2897 53.7261 30.2135C53.6403 31.4373 53.3972 32.6373 53.0445 33.8134C52.4773 35.7135 51.6242 37.4896 50.4183 39.0563C49.2362 40.5896 47.9588 42.0563 46.6862 43.5134C45.1514 45.2706 43.6071 47.0134 42.4442 49.0562C41.8293 50.1324 41.3193 51.2515 40.9904 52.4515C40.9714 52.5182 40.9428 52.58 40.8856 52.7277C40.5662 51.4848 40.1277 50.3705 39.5606 49.2848Z" fill="#019D49"/>
<path d="M84.6166 56.3983C84.7404 57.3125 84.8502 58.1983 84.9647 59.084C84.9881 59.084 85.0122 59.084 85.0363 59.0887C85.3937 56.4078 85.7511 53.7316 86.1086 51.0459C87.3047 51.0459 88.4727 51.0459 89.6594 51.0459C89.6594 55.2887 89.6594 59.522 89.6594 63.7839C88.8589 63.7839 88.053 63.7839 87.2237 63.7839C87.2237 61.0983 87.2237 58.4221 87.2237 55.7411C87.2003 55.7411 87.1715 55.7364 87.1474 55.7316C86.7331 58.4125 86.3181 61.0935 85.9037 63.803C85.298 63.803 84.707 63.8077 84.1159 63.7935C84.059 63.7935 83.9687 63.6745 83.954 63.5982C83.7063 62.0649 83.468 60.5316 83.2297 59.003C83.053 57.8983 82.8864 56.7888 82.6675 55.6888C82.6675 58.3792 82.6675 61.0696 82.6675 63.7839C81.8094 63.7839 80.9801 63.7839 80.1313 63.7839C80.1313 59.5507 80.1313 55.3173 80.1313 51.0555C81.371 51.0555 82.6146 51.0555 83.9017 51.0555C84.1353 52.8221 84.3736 54.5983 84.6166 56.3983Z" fill="#374285"/>
<path d="M66.8337 60.1749C66.5 59.0701 66.1711 57.9892 65.8422 56.9082C65.8232 56.9082 65.8041 56.9082 65.785 56.9131C65.785 59.194 65.785 61.4797 65.785 63.7844C64.8985 63.7844 64.0501 63.7844 63.1826 63.7844C63.1826 59.5511 63.1826 55.3178 63.1826 51.0559C63.2494 51.0512 63.3256 51.0369 63.4019 51.0369C64.1835 51.0321 64.9605 51.0417 65.7422 51.0273C65.9423 51.0273 66.0234 51.094 66.0805 51.2845C66.6191 53.0702 67.1671 54.8511 67.7106 56.6321C67.8057 56.9416 67.9061 57.2559 68.0634 57.5607C68.0634 55.394 68.0634 53.2321 68.0634 51.0512C68.9355 51.0512 69.7742 51.0512 70.6323 51.0512C70.6323 55.2892 70.6323 59.5273 70.6323 63.7844C69.7361 63.7844 68.8499 63.7844 67.9396 63.7844C67.5774 62.5939 67.21 61.3987 66.8337 60.1749Z" fill="#364185"/>
<path d="M28.5455 53.6271C28.8314 54.8986 28.841 56.1367 28.4073 57.3557C28.2166 57.8986 27.9211 58.3795 27.4731 58.7462C27.3253 58.87 27.3396 58.989 27.3873 59.1557C27.8257 60.6462 28.2547 62.1414 28.6837 63.6366C28.6932 63.6748 28.698 63.7176 28.7075 63.7795C27.7448 63.7795 26.7962 63.7795 25.8096 63.7795C25.6333 63.0986 25.4474 62.3938 25.2615 61.689C25.0899 61.0462 24.9088 60.3985 24.7467 59.7509C24.6991 59.551 24.618 59.4557 24.3797 59.551C24.3797 60.9462 24.3797 62.3557 24.3797 63.7842C23.4503 63.7842 22.5542 63.7842 21.6343 63.7842C21.6343 59.5462 21.6343 55.3081 21.6343 51.0748C21.6486 51.0605 21.6677 51.0415 21.6819 51.0415C22.9736 51.0367 24.2701 51.0034 25.5618 51.0415C26.9201 51.0891 27.9688 51.9462 28.4406 53.3082C28.474 53.4034 28.5026 53.5034 28.5455 53.6271ZM25.8715 55.351C25.8715 55.1748 25.8906 54.9938 25.8715 54.8224C25.7238 53.6653 25.333 53.4176 24.394 53.5986C24.394 54.7177 24.394 55.8367 24.394 56.9843C24.5561 56.9843 24.6991 56.9843 24.8373 56.9843C25.333 56.9843 25.5665 56.8462 25.7142 56.3795C25.8096 56.07 25.8239 55.7319 25.8715 55.351Z" fill="#364185"/>
<path d="M50.8568 68.6458C51.4288 69.6034 51.6481 70.646 51.71 71.722C51.7624 72.5887 51.772 73.4554 51.7529 74.3174C51.729 75.5459 51.6337 76.7603 51.0904 77.8985C50.4517 79.2319 49.4031 79.9843 47.9446 80.1461C47.0008 80.2504 46.0809 80.1361 45.2468 79.6459C44.2078 79.0414 43.6263 78.079 43.3593 76.9462C43.183 76.2032 43.0829 75.4268 43.0591 74.6651C43.0257 73.5316 43.04 72.3934 43.1258 71.2652C43.2259 70.0033 43.6024 68.8223 44.5224 67.8888C45.0753 67.3317 45.7473 67.0034 46.5147 66.8796C47.754 66.6793 48.9312 66.8174 49.9417 67.6266C50.2896 67.9028 50.547 68.2887 50.8568 68.6458ZM46.6482 69.1888C46.0953 69.5412 45.9475 70.1177 45.8808 70.7028C45.6854 72.4175 45.733 74.1361 45.8283 75.8508C45.8522 76.2367 45.938 76.6272 46.0571 76.9937C46.2573 77.641 46.753 77.9888 47.3869 77.9841C48.0256 77.9747 48.5165 77.6744 48.7024 77.0271C48.8597 76.47 48.9646 75.8842 48.9884 75.3078C49.0265 74.0933 49.017 72.8742 48.9932 71.6558C48.9837 71.189 48.9217 70.7129 48.8121 70.2554C48.5404 69.1507 47.7444 68.7555 46.6482 69.1888Z" fill="#029E49"/>
<path d="M29.2699 60.1983C29.084 58.0888 28.9411 55.9983 29.4368 53.9364C29.7085 52.8031 30.2708 51.8269 31.329 51.2364C32.7255 50.4507 34.899 50.6745 35.9809 52.284C36.6673 53.2983 36.9437 54.4364 37.0104 55.6316C37.0629 56.5364 37.0724 57.4459 37.0581 58.3507C37.0295 59.6316 36.8913 60.8983 36.2907 62.065C35.2564 64.0935 33.0019 64.4935 31.3576 63.6316C30.4281 63.1411 29.8943 62.303 29.5607 61.3316C29.4368 60.9697 29.3652 60.5935 29.2699 60.1983ZM34.1173 59.9983C34.1316 59.7697 34.1602 59.5459 34.1602 59.3221C34.1649 58.0507 34.1792 56.784 34.1507 55.5174C34.1411 55.0078 34.0601 54.4935 33.9505 53.9983C33.8503 53.5459 33.4977 53.3079 33.083 53.3031C32.6731 53.2983 32.3347 53.5459 32.2107 53.9888C32.1202 54.3031 32.0487 54.6316 32.0439 54.9554C32.0201 56.4078 31.9963 57.8649 32.0201 59.3173C32.0296 59.8745 32.1345 60.4364 32.2679 60.9793C32.3633 61.3649 32.6874 61.5316 33.0973 61.5268C33.512 61.5221 33.7884 61.3221 33.9171 60.9506C34.0172 60.6649 34.0553 60.3555 34.1173 59.9983Z" fill="#364185"/>
<path d="M71.6812 60.9173C72.3961 57.6174 73.1063 54.3411 73.8164 51.0459C73.9115 51.0412 73.9978 51.0317 74.0882 51.0317C74.9603 51.0317 75.8325 51.0364 76.7046 51.0317C76.8813 51.0269 76.967 51.0602 77.0145 51.265C77.6631 54.3031 78.3204 57.3364 78.9831 60.3697C79.2167 61.4554 79.455 62.5412 79.6886 63.6269C79.6979 63.6745 79.7026 63.7268 79.7127 63.7888C78.7542 63.7888 77.8151 63.7888 76.8526 63.7888C76.7381 63.103 76.6143 62.4269 76.5139 61.7459C76.4757 61.4935 76.3947 61.403 76.1283 61.4126C75.5942 61.4364 75.0601 61.4316 74.5266 61.4173C74.3312 61.4126 74.2595 61.4792 74.2308 61.6697C74.1451 62.2602 74.0353 62.8459 73.9356 63.4316C73.9162 63.5506 73.888 63.6697 73.8593 63.7888C72.9296 63.7888 72.0193 63.7888 71.0708 63.7888C71.2756 62.8268 71.4764 61.884 71.6812 60.9173ZM75.1558 56.2602C74.9938 57.1983 74.8365 58.1316 74.6698 59.0935C75.1464 59.0935 75.5801 59.0935 76.052 59.0935C75.8278 57.7555 75.6083 56.4364 75.3894 55.1126C75.3747 55.1126 75.3606 55.1078 75.3512 55.1031C75.289 55.4697 75.2274 55.8364 75.1558 56.2602Z" fill="#364185"/>
<path d="M40.1278 54.103C40.3709 55.8792 40.6092 57.6316 40.8427 59.3792C40.8666 59.3792 40.8904 59.3792 40.9142 59.3792C41.3003 56.6078 41.6864 53.8412 42.0772 51.0555C43.0019 51.0555 43.9075 51.0555 44.8655 51.0555C44.0552 55.3078 43.2402 59.5459 42.4299 63.7935C41.3575 63.7935 40.3089 63.7935 39.2174 63.7935C38.4167 59.5554 37.6111 55.3126 36.8057 51.0459C37.778 51.0459 38.7217 51.0459 39.7131 51.0459C39.8465 52.0507 39.98 53.065 40.1278 54.103Z" fill="#364185"/>
<path d="M13.7936 51.0419C13.8366 51.2276 13.8651 51.4085 13.8651 51.5895C13.8699 52.218 13.8699 52.8466 13.8699 53.5085C12.6974 53.5085 11.5487 53.5085 10.3762 53.5085C10.3762 54.3752 10.3762 55.2038 10.3762 56.0656C11.4057 56.0656 12.4352 56.0656 13.4838 56.0656C13.4838 56.899 13.4838 57.699 13.4838 58.5275C12.4543 58.5275 11.4248 58.5275 10.3762 58.5275C10.3762 59.4513 10.3762 60.3418 10.3762 61.2656C11.5725 61.2656 12.7689 61.2656 13.9843 61.2656C13.9843 62.1133 13.9843 62.9323 13.9843 63.7799C11.8585 63.7799 9.72319 63.7799 7.56885 63.7799C7.56885 59.5371 7.56885 55.299 7.56885 51.0371C9.64695 51.0371 11.706 51.0371 13.7936 51.0419Z" fill="#374285"/>
<path d="M54.1171 53.5221C53.3735 53.5221 52.6539 53.5221 51.9199 53.5221C51.9199 54.3745 51.9199 55.2031 51.9199 56.0649C52.9494 56.0649 53.9789 56.0649 55.0275 56.0649C55.0275 56.8982 55.0275 57.6935 55.0275 58.5268C54.0027 58.5268 52.9732 58.5268 51.9199 58.5268C51.9199 59.4459 51.9199 60.3411 51.9199 61.2602C53.1162 61.2602 54.3078 61.2602 55.5279 61.2602C55.5279 62.1173 55.5279 62.9459 55.5279 63.7887C53.3926 63.7887 51.2621 63.7887 49.1172 63.7887C49.1172 59.5364 49.1172 55.2983 49.1172 51.0459C51.2096 51.0459 53.2878 51.0459 55.3897 51.0459C55.3897 51.8554 55.3897 52.665 55.3897 53.5221C54.9798 53.5221 54.5652 53.5221 54.1171 53.5221Z" fill="#364185"/>
<path d="M0 53.3367C0 52.5652 0 51.8224 0 51.0796C0.0381307 51.0605 0.0667293 51.0415 0.0953275 51.0415C1.36317 51.0367 2.63578 51.0034 3.90839 51.0415C5.17624 51.0843 6.09138 51.751 6.56801 52.9177C7.23531 54.5605 7.23531 56.2367 6.46791 57.8557C5.94362 58.9652 4.99989 59.4796 3.794 59.5129C3.46036 59.5224 3.12195 59.5129 2.75017 59.5129C2.75017 60.9509 2.75017 62.3605 2.75017 63.7842C1.82074 63.7842 0.924667 63.7842 0 63.7842C0 60.3033 0 56.8367 0 53.3367ZM2.75017 53.9415C2.75017 54.9462 2.75017 55.9558 2.75017 56.9557C3.61288 57.07 3.98942 56.8509 4.08475 56.0652C4.15624 55.4938 4.14195 54.8938 4.05139 54.3224C3.94653 53.6509 3.42223 53.3986 2.75017 53.6129C2.75017 53.6986 2.75017 53.789 2.75017 53.9415Z" fill="#364184"/>
<path d="M27.5301 79.9275C26.9486 79.9275 26.3957 79.9275 25.8237 79.9275C25.8237 75.6275 25.8237 71.3515 25.8237 67.0422C26.0668 67.0422 26.3004 67.0422 26.534 67.0422C27.5587 67.0422 28.5835 67.0515 29.613 67.0422C31.7054 67.0228 32.9446 68.48 33.1448 70.4039C33.2307 71.2084 33.1925 72.0082 32.9923 72.7893C32.5824 74.3562 31.3527 75.3225 29.7465 75.3419C29.3175 75.3466 28.8885 75.3419 28.4214 75.3419C28.4214 76.88 28.4214 78.3894 28.4214 79.9275C28.1116 79.9275 27.8352 79.9275 27.5301 79.9275ZM30.4948 70.9088C30.4042 70.5323 30.3756 70.1277 30.2088 69.7894C30.0944 69.5607 29.818 69.3373 29.5748 69.2751C29.2174 69.1895 28.8265 69.2564 28.4357 69.2564C28.4357 70.5658 28.4357 71.8464 28.4357 73.1511C28.7217 73.1511 28.9886 73.1511 29.2508 73.1511C29.7941 73.1511 30.142 72.9559 30.2898 72.4229C30.4185 71.9514 30.4328 71.4512 30.4948 70.9088Z" fill="#019D49"/>
<path d="M41.3191 72.0556C40.7663 74.6122 40.2134 77.1461 39.6653 79.6793C39.6366 79.8123 39.6223 79.9314 39.4317 79.9314C38.507 79.922 37.5871 79.9267 36.6338 79.9267C35.7092 75.6361 34.7892 71.3601 33.8599 67.0601C34.7941 67.0601 35.7044 67.0601 36.6386 67.0601C37.1439 70.0033 37.6491 72.9504 38.1495 75.8935C38.1734 75.8935 38.1972 75.8935 38.221 75.8935C38.345 75.1506 38.4736 74.4076 38.6023 73.6693C38.9741 71.5313 39.3411 69.3981 39.7224 67.2648C39.7367 67.1792 39.8606 67.0555 39.9369 67.0508C40.7424 67.0361 41.5527 67.0407 42.4011 67.0407C42.0389 68.722 41.6814 70.3744 41.3191 72.0556Z" fill="#029E49"/>
<path d="M19.0607 56.8699C19.0607 59.1889 19.0607 61.4794 19.0607 63.7841C18.1218 63.7841 17.2161 63.7841 16.2819 63.7841C16.2819 60.3889 16.2819 56.9985 16.2819 53.5699C15.6528 53.5699 15.057 53.5699 14.4326 53.5699C14.4326 52.7175 14.4326 51.8985 14.4326 51.0557C16.5631 51.0557 18.7032 51.0557 20.8671 51.0557C20.8671 51.8699 20.8671 52.6985 20.8671 53.5509C20.2761 53.5509 19.6946 53.5509 19.0607 53.5509C19.0607 54.6604 19.0607 55.7509 19.0607 56.8699Z" fill="#354084"/>
<path d="M61.8715 51.0322C62.0622 51.0322 62.229 51.0322 62.4101 51.0322C62.4101 51.8704 62.4101 52.6894 62.4101 53.5417C61.8286 53.5417 61.2376 53.5417 60.618 53.5417C60.618 56.9703 60.618 60.3608 60.618 63.7798C59.6742 63.7798 58.7591 63.7798 57.8202 63.7798C57.8202 60.3798 57.8202 56.9894 57.8202 53.5655C57.1957 53.5655 56.5952 53.5655 55.9756 53.5655C55.9756 52.7132 55.9756 51.8942 55.9756 51.0322C57.9298 51.0322 59.8839 51.0322 61.8715 51.0322Z" fill="#354084"/>
<path d="M63.9068 78.0033C63.9068 78.6514 63.9068 79.2699 63.9068 79.9086C62.0289 79.9086 60.17 79.9086 58.2969 79.9086C58.2969 75.6226 58.2969 71.3561 58.2969 67.0654C59.1691 67.0654 60.0366 67.0654 60.9279 67.0654C60.9279 70.6084 60.9279 74.1467 60.9279 77.7318C61.0613 77.7318 61.1662 77.7318 61.2711 77.7318C62.0718 77.7318 62.8726 77.7372 63.6733 77.7272C63.8639 77.7272 63.9355 77.7847 63.9068 78.0033Z" fill="#029E49"/>
<path d="M48.14 52.0368C48.14 55.9653 48.14 59.8652 48.14 63.7843C47.2202 63.7843 46.3193 63.7843 45.3994 63.7843C45.3994 59.5558 45.3994 55.3177 45.3994 51.0605C46.2907 51.0605 47.1963 51.0605 48.14 51.0605C48.14 51.3749 48.14 51.6891 48.14 52.0368Z" fill="#364185"/>
<path d="M53.5498 76.0745C53.5498 73.0558 53.5498 70.0652 53.5498 67.0605C54.4316 67.0605 55.2752 67.0605 56.1427 67.0605C56.1427 71.3412 56.1427 75.6084 56.1427 79.903C55.2991 79.903 54.4411 79.903 53.5498 79.903C53.5498 78.6364 53.5498 77.3698 53.5498 76.0745Z" fill="#009D48"/>
<path d="M199.208 6.23925C201.539 6.93613 203.593 8.05794 205.36 9.67081C206.777 10.9644 207.927 12.4768 208.847 14.1624C210.229 16.6916 211.059 19.4051 211.559 22.2289C211.817 23.6867 212.016 25.1519 212.069 26.6341C212.095 27.3587 212.157 28.0828 212.159 28.8073C212.168 32.4284 212.195 36.05 212.155 39.6708C212.113 43.3621 211.599 46.9886 210.397 50.4953C209.553 52.9576 208.359 55.2342 206.638 57.2026C204.495 59.6533 201.824 61.262 198.675 62.0908C196.61 62.6344 194.506 62.7975 192.384 62.7133C190.145 62.6246 187.968 62.1992 185.897 61.3129C184.158 60.5688 182.61 59.5439 181.241 58.231C179.072 56.1499 177.63 53.6223 176.618 50.829C175.808 48.5939 175.312 46.284 175.039 43.9219C174.883 42.5621 174.759 41.2026 174.752 39.8328C174.735 36.2302 174.654 32.6269 174.705 29.0253C174.755 25.4441 175.164 21.8981 176.241 18.4585C177.073 15.8032 178.271 13.3407 180.07 11.1923C182.291 8.53984 185.11 6.85789 188.45 6.02196C189.83 5.67616 191.237 5.51818 192.662 5.46857C194.874 5.39159 197.043 5.61797 199.208 6.23925ZM194.79 14.9393C193.889 14.8035 192.991 14.7987 192.089 14.9367C190.382 15.1982 189.106 16.0801 188.238 17.5681C187.504 18.8272 187.146 20.2108 186.903 21.628C186.569 23.5676 186.448 25.527 186.44 27.4919C186.426 30.7565 186.429 34.0211 186.439 37.2857C186.444 38.9479 186.483 40.61 186.5 42.2722C186.513 43.5292 186.636 44.7762 186.818 46.0183C187.021 47.408 187.332 48.7672 187.937 50.0475C188.681 51.6214 189.831 52.7194 191.552 53.1409C192.467 53.365 193.399 53.4015 194.338 53.305C196.393 53.0941 197.905 52.1001 198.848 50.252C199.32 49.327 199.613 48.3445 199.835 47.336C200.331 45.0918 200.45 42.8062 200.466 40.5249C200.497 35.9545 200.434 31.3835 200.418 26.8127C200.413 25.1191 200.282 23.4368 200.008 21.7662C199.784 20.3938 199.446 19.0565 198.784 17.8163C198.268 16.8517 197.566 16.0723 196.608 15.539C196.068 15.2385 195.48 15.0629 194.79 14.9393Z" fill="#EC1D24"/>
<path d="M113.122 41.9612C112.528 41.9612 111.982 41.9612 111.401 41.9612C111.401 48.56 111.401 55.1007 111.401 61.6701C107.635 61.6701 103.907 61.6701 100.154 61.6701C100.154 43.2837 100.154 24.9096 100.154 6.47281C100.332 6.4646 100.517 6.44859 100.702 6.44854C105.782 6.44719 110.862 6.43946 115.941 6.45422C116.956 6.45716 117.98 6.48264 118.984 6.60863C122.101 6.99924 124.838 8.22069 127.111 10.4315C129.247 12.5085 130.536 15.0465 131.262 17.8978C131.613 19.2727 131.844 20.6684 131.874 22.091C131.9 23.3004 131.974 24.5121 131.929 25.719C131.825 28.4732 131.344 31.1577 130.19 33.6859C129.53 35.1329 128.669 36.4481 127.573 37.6134C125.298 40.0321 122.476 41.354 119.222 41.801C118.378 41.917 117.518 41.9367 116.664 41.955C115.5 41.98 114.335 41.9612 113.122 41.9612ZM120.419 22.7402C120.384 22.3074 120.362 21.873 120.311 21.4422C120.166 20.2311 119.854 19.0654 119.237 18.006C118.397 16.5611 117.174 15.7399 115.447 15.7649C114.267 15.7819 113.086 15.7674 111.905 15.7691C111.749 15.7693 111.592 15.7824 111.414 15.7906C111.414 21.414 111.414 26.999 111.414 32.6063C111.533 32.6208 111.642 32.6455 111.751 32.6457C113.126 32.6483 114.501 32.6563 115.876 32.6436C116.572 32.6372 117.206 32.4035 117.777 32.0089C118.909 31.2254 119.502 30.0811 119.911 28.8118C120.367 27.3996 120.417 25.935 120.477 24.4738C120.5 23.9286 120.441 23.38 120.419 22.7402Z" fill="#EC1D25"/>
<path d="M163.897 6.44728C166.532 6.44729 169.119 6.44729 171.678 6.44729C171.718 6.48702 171.73 6.49657 171.739 6.50872C171.748 6.52175 171.76 6.53722 171.76 6.55163C171.76 6.59955 171.761 6.64884 171.751 6.69523C167.764 24.9489 163.777 43.2024 159.787 61.4555C159.77 61.532 159.729 61.603 159.694 61.6861C155.47 61.6861 151.249 61.6861 147.033 61.6861C146.861 61.1203 135.034 6.88381 135.093 6.47468C139.016 6.47468 142.94 6.47468 146.895 6.47468C149.13 19.472 151.362 32.4477 153.593 45.4234C153.621 45.4232 153.649 45.423 153.676 45.4227C155.934 32.4517 158.192 19.4807 160.46 6.44727C161.591 6.44727 162.72 6.44727 163.897 6.44728Z" fill="#EC1D25"/>
<path d="M247.308 43.7519C247.308 46.594 247.308 49.3875 247.308 52.2225C251.578 52.2225 255.811 52.2225 260.031 52.2225C260.149 52.6153 260.193 60.4145 260.096 61.6686C252.068 61.6686 244.038 61.6686 235.978 61.6686C235.978 43.2797 235.978 24.8949 235.978 6.48242C239.746 6.48242 243.494 6.48242 247.308 6.48242C247.308 18.8876 247.308 31.2955 247.308 43.7519Z" fill="#EC1C24"/>
<path d="M230.092 30.7522C230.092 41.0805 230.092 51.3602 230.092 61.6693C226.311 61.6693 222.567 61.6693 218.793 61.6693C218.793 43.2872 218.793 24.9107 218.793 6.46214C219.714 6.43014 220.644 6.45184 221.573 6.44796C222.528 6.44398 223.482 6.44708 224.437 6.44708C225.376 6.44708 226.314 6.44708 227.253 6.44708C228.186 6.44708 229.121 6.44708 230.092 6.44708C230.092 14.5741 230.092 22.6389 230.092 30.7522Z" fill="#EC1D25"/>
<path d="M101.39 75.8617C101.39 74.6379 101.39 73.4629 101.39 72.2465C100.956 72.2465 100.575 72.2465 100.161 72.2465C100.161 71.7155 100.161 71.2266 100.161 70.6936C100.562 70.6936 100.944 70.6936 101.38 70.6936C101.38 68.9797 101.38 67.3092 101.38 65.6089C101.572 65.5989 101.713 65.5854 101.853 65.5853C103.438 65.5837 105.024 65.5675 106.608 65.5898C107.809 65.6067 108.949 65.8468 109.879 66.693C110.707 67.4482 111.213 68.3905 111.434 69.4752C111.725 70.8956 111.755 72.322 111.364 73.7324C111.021 74.9702 110.404 76.0242 109.244 76.6735C108.469 77.1075 107.623 77.3128 106.74 77.3195C105.041 77.3336 103.343 77.3235 101.645 77.3229C101.581 77.3229 101.518 77.3108 101.39 77.2981C101.39 76.836 101.39 76.3733 101.39 75.8617ZM107.455 75.1207C108.244 74.8599 108.624 74.248 108.827 73.4977C109.027 72.7614 109.076 72.005 109.053 71.248C109.03 70.5091 108.985 69.7701 108.667 69.0786C108.333 68.3544 107.788 67.8789 107.011 67.7271C105.993 67.5278 104.96 67.6449 103.908 67.6268C103.908 68.658 103.908 69.6491 103.908 70.701C104.777 70.701 105.622 70.701 106.477 70.701C106.477 71.2373 106.477 71.7128 106.477 72.2491C105.606 72.2491 104.76 72.2491 103.905 72.2491C103.905 73.3037 103.905 74.2982 103.905 75.3387C105.083 75.3521 106.238 75.3815 107.455 75.1207Z" fill="#394286"/>
<path d="M222.908 75.5709C222.908 74.3912 222.911 73.2597 222.904 72.1282C222.903 71.8888 222.88 71.6461 222.84 71.41C222.695 70.5426 221.973 70.1595 221.147 70.4938C220.552 70.7346 220.222 71.1913 220.123 71.8005C220.046 72.2753 220.007 72.7608 220.001 73.2417C219.985 74.4862 219.995 75.7307 219.995 76.9753C219.995 77.0702 219.995 77.1652 219.995 77.2909C219.196 77.2909 218.429 77.2909 217.599 77.2909C217.599 77.1364 217.599 76.9813 217.599 76.8255C217.599 75.2419 217.6 73.6576 217.599 72.0741C217.599 71.8962 217.592 71.719 217.58 71.5417C217.509 70.4845 216.789 70.2517 215.951 70.4557C215.374 70.5961 214.988 70.984 214.852 71.5672C214.765 71.941 214.7 72.3282 214.695 72.7107C214.676 74.0676 214.688 75.4258 214.688 76.7833C214.688 76.9432 214.688 77.1023 214.688 77.2929C213.908 77.2929 213.155 77.2929 212.398 77.2929C212.303 76.9572 212.26 69.9488 212.354 68.8186C213.05 68.8186 213.751 68.8186 214.478 68.8186C214.478 69.1376 214.478 69.4406 214.478 69.8171C214.611 69.7221 214.701 69.6726 214.774 69.6044C215.425 69.0019 216.188 68.626 217.076 68.6026C218.048 68.5765 218.929 68.8367 219.54 69.6773C219.585 69.7402 219.637 69.7977 219.709 69.8846C219.842 69.7622 219.959 69.6579 220.074 69.5509C221.13 68.5565 222.546 68.3431 223.849 68.8929C224.673 69.2406 225.114 69.91 225.236 70.7894C225.258 70.9492 225.268 71.1117 225.268 71.2722C225.271 73.1795 225.27 75.0867 225.269 76.994C225.269 77.0883 225.26 77.1819 225.254 77.2983C224.477 77.2983 223.724 77.2983 222.908 77.2983C222.908 76.7365 222.908 76.1781 222.908 75.5709Z" fill="#384285"/>
<path d="M232.796 76.181C232.057 75.2802 231.777 74.265 231.768 73.1476C231.761 72.2655 231.836 71.4035 232.237 70.6063C232.797 69.4936 233.69 68.8282 234.94 68.6523C236.087 68.4911 237.078 68.7773 237.889 69.6253C237.943 69.6821 238.006 69.7316 238.126 69.8386C238.126 69.4661 238.126 69.1565 238.126 68.8161C238.893 68.8161 239.611 68.8161 240.36 68.8161C240.368 68.9532 240.383 69.0776 240.383 69.2026C240.384 71.8535 240.394 74.5044 240.377 77.1546C240.373 77.8154 240.273 78.4714 239.988 79.084C239.716 79.6664 239.275 80.0703 238.7 80.3439C238.121 80.6187 237.501 80.7398 236.873 80.7719C236.02 80.816 235.162 80.8046 234.32 80.6167C233.591 80.4549 232.946 80.1486 232.491 79.5273C232.142 79.0512 232.002 78.5236 232.095 77.8842C232.985 77.901 233.848 78.0721 234.758 78.1577C234.845 78.8165 235.334 78.9502 235.874 79.0151C236.35 79.0719 236.813 78.9957 237.252 78.8305C237.719 78.6553 237.966 78.2821 237.982 77.7846C237.998 77.2683 237.986 76.7514 237.986 76.1729C237.876 76.2512 237.796 76.29 237.74 76.3515C236.464 77.7478 234.029 77.6 232.923 76.3093C232.891 76.2726 232.854 76.2405 232.796 76.181ZM234.422 71.5185C234.129 72.3818 234.112 73.2539 234.364 74.1266C234.534 74.7177 234.895 75.1551 235.484 75.3678C236.441 75.7135 237.5 75.1892 237.855 74.1781C238.147 73.3468 238.135 72.5009 237.861 71.6643C237.715 71.2182 237.423 70.8772 237.026 70.6311C236.299 70.181 234.976 70.2893 234.422 71.5185Z" fill="#394386"/>
<path d="M148.161 78.538C148.157 78.3341 148.157 78.1722 148.161 78.0111C148.162 77.9823 148.182 77.9536 148.22 77.8573C149.072 77.9556 149.942 78.0559 150.834 78.1589C150.947 78.8865 151.501 78.9995 152.064 79.0189C152.443 79.0316 152.838 78.9714 153.205 78.8684C153.764 78.7119 154.051 78.3067 154.071 77.7228C154.088 77.2253 154.074 76.7271 154.074 76.1526C153.932 76.2657 153.831 76.3299 153.75 76.4141C152.436 77.775 149.874 77.652 148.689 75.9547C148.156 75.1923 147.878 74.3504 147.861 73.4208C147.845 72.5802 147.837 71.7383 148.164 70.9418C148.687 69.6672 149.599 68.8647 150.989 68.6547C152.153 68.4788 153.159 68.7778 153.977 69.6451C154.04 69.7127 154.117 69.7668 154.256 69.8859C154.256 69.4866 154.256 69.161 154.256 68.8112C154.997 68.8112 155.685 68.8112 156.406 68.8112C156.417 68.9383 156.436 69.0607 156.436 69.1837C156.438 71.8821 156.439 74.5798 156.436 77.2775C156.436 77.8292 156.339 78.3642 156.143 78.8824C155.855 79.6395 155.317 80.1397 154.574 80.4292C153.951 80.6713 153.299 80.7643 152.634 80.7817C151.874 80.8017 151.116 80.7756 150.372 80.6118C149.389 80.3958 148.608 79.9069 148.247 78.9092C148.209 78.8042 148.194 78.6905 148.161 78.538ZM151.077 70.7499C150.676 71.0635 150.45 71.4842 150.364 71.9744C150.237 72.6946 150.226 73.4162 150.434 74.125C150.485 74.2936 150.561 74.4581 150.649 74.6105C151.039 75.2933 151.843 75.6217 152.6 75.4117C153.315 75.2137 153.769 74.7342 153.976 74.0421C154.193 73.3185 154.174 72.5769 153.989 71.8473C153.641 70.467 152.143 69.9942 151.077 70.7499Z" fill="#384285"/>
<path d="M128.422 68.819C129.648 68.5007 130.832 68.4947 131.961 69.0056C133.385 69.649 134.245 70.7531 134.47 72.3192C134.481 72.3975 134.503 72.4737 134.519 72.5506C135.143 72.4162 135.503 71.9167 135.533 71.1255C135.199 71.1255 134.865 71.1255 134.464 71.1255C134.464 70.7116 134.464 70.3311 134.464 69.9506C134.464 69.5814 134.464 69.2123 134.464 68.815C135.25 68.815 136.003 68.815 136.788 68.815C136.8 68.9154 136.825 69.0217 136.824 69.1273C136.818 69.7894 136.807 70.4508 136.795 71.1128C136.773 72.334 136.13 73.1264 135.052 73.6112C134.876 73.6902 134.692 73.7517 134.563 73.8012C134.352 74.3335 134.212 74.8558 133.953 75.3098C133.175 76.6687 131.967 77.3936 130.411 77.5127C129.55 77.5782 128.706 77.4812 127.9 77.1275C126.631 76.5697 125.815 75.6502 125.526 74.28C125.357 73.4828 125.307 72.6897 125.515 71.8926C125.917 70.3518 126.856 69.3173 128.422 68.819ZM130.595 75.5553C131.283 75.3032 131.712 74.8016 131.924 74.1195C132.134 73.4427 132.132 72.7499 131.946 72.0678C131.693 71.1436 130.956 70.535 130.078 70.4989C129.12 70.4588 128.355 70.951 128.023 71.8745C127.763 72.6014 127.743 73.3498 127.966 74.0968C128.262 75.0851 129.13 75.9003 130.595 75.5553Z" fill="#394285"/>
<path d="M115.403 77.3881C114.211 77.0036 113.757 76.1148 113.625 74.9967C113.598 74.7733 113.593 74.546 113.592 74.3199C113.589 72.6394 113.591 70.9588 113.591 69.2783C113.591 69.1352 113.591 68.9914 113.591 68.8169C114.372 68.8169 115.124 68.8169 115.929 68.8169C115.937 68.9587 115.952 69.1125 115.953 69.2656C115.955 70.4774 115.946 71.6898 115.957 72.9015C115.962 73.4319 115.99 73.9635 116.036 74.4925C116.116 75.4013 116.775 75.9055 117.676 75.749C118.479 75.6093 119.197 75.105 119.218 73.9381C119.244 72.42 119.243 70.9013 119.253 69.3833C119.254 69.2081 119.253 69.0322 119.253 68.8216C120.048 68.8216 120.815 68.8216 121.633 68.8216C121.633 70.1798 121.633 71.5447 121.633 72.9136C122.868 72.8126 123.578 71.97 123.461 71.1267C123.119 71.1267 122.769 71.1267 122.36 71.1267C122.36 70.7021 122.36 70.3195 122.36 69.9377C122.36 69.5699 122.36 69.2027 122.36 68.8115C123.175 68.8115 123.941 68.8115 124.749 68.8115C124.74 69.8146 124.849 70.7984 124.645 71.7674C124.464 72.622 123.894 73.1871 123.114 73.5208C122.66 73.7154 122.17 73.8271 121.66 73.9876C121.66 75.0609 121.66 76.155 121.66 77.3099C121.263 77.3152 120.899 77.3212 120.536 77.3239C120.182 77.3259 119.829 77.3246 119.424 77.3246C119.424 76.9688 119.424 76.6418 119.424 76.1871C118.289 77.5038 116.938 77.7158 115.403 77.3881Z" fill="#394286"/>
<path d="M200.661 70.8827C200.684 72.5726 200.696 74.2204 200.708 75.8681C200.711 76.3336 200.708 76.7997 200.708 77.2952C199.924 77.2952 199.172 77.2952 198.357 77.2952C198.353 77.1521 198.346 76.9983 198.346 76.8452C198.344 75.3586 198.349 73.8713 198.342 72.3847C198.34 72.0643 198.316 71.742 198.273 71.425C198.204 70.9068 197.899 70.5543 197.395 70.448C196.365 70.23 195.396 70.6513 195.162 71.8142C195.086 72.1907 195.055 72.5806 195.051 72.9651C195.037 74.2418 195.045 75.5184 195.045 76.795C195.045 76.9535 195.045 77.1113 195.045 77.2966C194.237 77.2966 193.47 77.2966 192.676 77.2966C192.676 73.4105 192.676 69.5385 192.676 65.6002C193.046 65.5951 193.425 65.5879 193.805 65.5853C194.192 65.5827 194.58 65.5847 195.035 65.5847C195.061 66.9652 195.033 68.3288 195.052 69.7619C195.254 69.5994 195.411 69.4757 195.565 69.3486C196.658 68.4445 198.33 68.3589 199.561 69.0918C200.215 69.4817 200.521 70.1123 200.661 70.8827Z" fill="#394286"/>
<path d="M179.711 77.3239C179.196 77.3239 178.728 77.3239 178.219 77.3239C178.123 77.0578 178.029 76.7949 177.92 76.4927C177.751 76.6137 177.612 76.7174 177.468 76.8143C176.268 77.6295 174.978 77.784 173.655 77.2069C172.669 76.7769 172.217 75.9396 172.266 74.8683C172.313 73.8538 172.811 73.1015 173.778 72.7711C174.536 72.5117 175.335 72.3712 176.115 72.1786C176.63 72.0522 177.146 71.9285 177.695 71.7948C177.695 71.5861 177.713 71.4089 177.692 71.237C177.65 70.892 177.481 70.6379 177.133 70.5195C176.612 70.3429 176.08 70.3577 175.556 70.4653C175.249 70.5282 175.015 70.7475 174.857 71.0264C174.786 71.1521 174.724 71.2825 174.641 71.4437C173.949 71.3247 173.256 71.2049 172.514 71.0772C172.748 70.0935 173.255 69.3693 174.156 68.976C174.985 68.6136 175.875 68.5828 176.766 68.6035C176.942 68.6076 177.12 68.627 177.294 68.6557C177.642 68.7126 177.998 68.75 178.334 68.851C179.483 69.1961 180.007 69.8909 180.026 71.0859C180.041 71.9854 180.028 72.8848 180.029 73.7843C180.033 75.4835 179.989 75.8387 180.534 77.3239C180.267 77.3239 180.012 77.3239 179.711 77.3239ZM177.651 73.3476C176.898 73.5161 176.144 73.684 175.392 73.8552C175.331 73.8692 175.275 73.9093 175.217 73.9374C174.375 74.3534 174.595 75.2354 175.059 75.6106C175.367 75.8601 175.722 75.9082 176.106 75.8721C177.102 75.7771 177.695 75.1438 177.698 74.1534C177.699 73.9113 177.694 73.6686 177.651 73.3476Z" fill="#394285"/>
<path d="M242.237 76.0395C241.889 75.0899 241.963 74.2305 242.573 73.4474C242.916 73.0074 243.392 72.766 243.915 72.6349C244.712 72.4343 245.518 72.2704 246.319 72.0832C246.707 71.9922 247.091 71.8832 247.459 71.7869C247.56 70.844 247.21 70.4368 246.319 70.402C246.222 70.398 246.125 70.408 246.028 70.4C245.254 70.3371 244.714 70.6481 244.432 71.4439C243.725 71.3228 243.018 71.2018 242.275 71.0747C242.53 70.1104 243.008 69.3735 243.902 68.9849C244.763 68.6111 245.684 68.5623 246.607 68.6138C247.024 68.6372 247.444 68.684 247.85 68.7783C248.174 68.8545 248.493 68.9896 248.787 69.1488C249.499 69.5333 249.772 70.1953 249.795 70.9584C249.829 72.0558 249.843 73.1545 249.824 74.2526C249.807 75.2597 249.828 76.2515 250.287 77.1797C250.299 77.2037 250.285 77.2412 250.28 77.298C249.53 77.298 248.778 77.298 247.993 77.298C247.904 77.0573 247.811 76.8052 247.694 76.4902C247.536 76.6025 247.398 76.6988 247.263 76.7985C246.365 77.4605 245.352 77.6357 244.273 77.4779C243.376 77.3462 242.671 76.9068 242.237 76.0395ZM245.763 75.889C247.216 75.6944 247.7 74.8351 247.433 73.315C247.011 73.4113 246.589 73.5009 246.171 73.6052C245.798 73.6975 245.416 73.7731 245.06 73.9129C244.344 74.1951 244.21 74.9481 244.738 75.5085C245.003 75.79 245.344 75.8522 245.763 75.889Z" fill="#394285"/>
<path d="M205.708 75.5265C206.015 75.6262 206.286 75.7479 206.567 75.7786C207.138 75.8402 207.607 75.6342 207.906 75.1199C207.994 74.9675 208.067 74.8063 208.176 74.5923C208.933 74.7133 209.702 74.8364 210.508 74.9655C210.111 76.1444 209.374 76.9302 208.248 77.2953C207.145 77.6538 206.015 77.6257 204.913 77.2739C203.771 76.9095 203.023 76.1023 202.65 74.9875C202.207 73.6648 202.209 72.3166 202.737 71.0172C203.299 69.6356 204.359 68.8585 205.846 68.6479C206.617 68.5389 207.363 68.6245 208.081 68.8819C209.108 69.2497 209.82 69.97 210.225 70.9851C210.572 71.8531 210.659 72.7559 210.591 73.7256C208.657 73.7256 206.74 73.7256 204.798 73.7256C204.858 74.4733 205.05 75.0965 205.708 75.5265ZM205.144 72.342C206.172 72.342 207.2 72.342 208.226 72.342C208.299 71.9454 208.181 71.6251 208.046 71.3202C207.726 70.5999 206.902 70.2355 206.101 70.4367C205.399 70.6126 204.802 71.4271 204.849 72.1367C204.858 72.2751 204.917 72.3433 205.144 72.342Z" fill="#384285"/>
<path d="M257.76 74.9889C257.76 74.1329 257.769 73.3244 257.756 72.5172C257.751 72.1641 257.721 71.8097 257.667 71.4606C257.571 70.8367 257.097 70.4441 256.468 70.3987C255.584 70.3351 254.609 70.8053 254.495 72.1902C254.472 72.4631 254.463 72.7379 254.462 73.0121C254.459 74.272 254.461 75.5326 254.461 76.7925C254.461 76.951 254.461 77.1095 254.461 77.2947C253.654 77.2947 252.887 77.2947 252.092 77.2947C252.092 74.4673 252.092 71.6505 252.092 68.8097C252.805 68.8097 253.495 68.8097 254.237 68.8097C254.237 69.1481 254.237 69.4939 254.237 69.9506C254.42 69.7915 254.523 69.7059 254.621 69.6156C255.754 68.5837 257.051 68.357 258.484 68.8418C259.485 69.1802 259.964 69.9306 260.089 70.9397C260.117 71.1637 260.122 71.3911 260.122 71.6164C260.124 73.3451 260.123 75.0738 260.123 76.8025C260.123 76.9603 260.123 77.1182 260.123 77.2994C259.329 77.2994 258.576 77.2994 257.76 77.2994C257.76 76.5424 257.76 75.7901 257.76 74.9889Z" fill="#394285"/>
<path d="M137.991 74.8922C137.991 72.8432 137.991 70.8423 137.991 68.814C138.736 68.814 139.438 68.814 140.176 68.814C140.176 69.1638 140.176 69.4981 140.176 69.8566C140.401 69.8512 140.473 69.6874 140.574 69.5851C141.633 68.5124 143.401 68.3345 144.711 68.9792C145.592 69.4125 145.988 70.1749 146.005 71.0951C146.044 73.1461 146.017 75.1985 146.017 77.3177C145.655 77.3197 145.274 77.3224 144.893 77.3237C144.508 77.3251 144.123 77.3237 143.687 77.3237C143.687 77.1452 143.687 77.0054 143.687 76.865C143.687 75.6686 143.693 74.4722 143.683 73.2758C143.68 72.7776 143.647 72.2788 143.619 71.7812C143.552 70.6069 142.703 70.191 141.687 70.4725C141.042 70.6517 140.594 71.0851 140.482 71.7872C140.447 72.0093 140.396 72.2319 140.391 72.4546C140.362 73.9071 140.343 75.359 140.322 76.8115C140.319 76.9566 140.321 77.1017 140.321 77.3164C139.929 77.3191 139.549 77.3224 139.169 77.3237C138.798 77.3251 138.427 77.3237 137.991 77.3237C137.991 76.5126 137.991 75.7268 137.991 74.8922Z" fill="#384285"/>
<path d="M165.916 76.1365C165.64 76.5377 165.386 76.9109 165.12 77.3021C164.212 77.3021 163.299 77.3021 162.311 77.3021C163.378 75.8282 164.413 74.3984 165.466 72.9446C164.462 71.5797 163.465 70.2241 162.407 68.7864C163.125 68.7864 163.733 68.7837 164.341 68.787C164.664 68.789 165.039 68.7028 165.294 68.8378C165.549 68.9729 165.688 69.3307 165.869 69.5969C166.195 70.0757 166.515 70.5592 166.87 71.0902C167.298 70.489 167.738 69.95 168.085 69.3561C168.361 68.8853 168.699 68.7409 169.221 68.7757C169.879 68.8198 170.543 68.7864 171.307 68.7864C170.304 70.1927 169.296 71.4954 168.316 72.8496C169.386 74.3202 170.446 75.778 171.542 77.2854C171.399 77.3014 171.299 77.3228 171.199 77.3228C170.471 77.3255 169.743 77.3101 169.015 77.3315C168.719 77.3402 168.551 77.2325 168.393 76.9878C167.984 76.3498 167.544 75.7312 167.114 75.1059C167.043 75.0023 166.961 74.9047 166.863 74.7769C166.542 75.2384 166.239 75.6737 165.916 76.1365Z" fill="#394285"/>
<path d="M189.743 70.6312C189.641 70.6573 189.564 70.6686 189.536 70.7114C189.506 70.7596 189.512 70.8365 189.513 70.9C189.522 72.2415 189.524 73.583 189.547 74.9238C189.557 75.4929 189.825 75.6835 190.399 75.5745C190.604 75.5351 190.806 75.4762 191.066 75.412C191.226 75.9704 191.192 76.5616 191.309 77.1367C190.993 77.3855 190.631 77.4269 190.291 77.4704C189.732 77.5426 189.166 77.5781 188.606 77.4276C187.662 77.1735 187.208 76.6412 187.184 75.6675C187.147 74.1829 187.136 72.6983 187.115 71.213C187.112 71.0378 187.115 70.8626 187.115 70.6339C186.751 70.6339 186.421 70.6339 186.07 70.6339C186.07 70.0046 186.07 69.4295 186.07 68.7995C186.405 68.7995 186.735 68.7995 187.099 68.7995C187.099 68.2191 187.099 67.6914 187.099 67.1377C187.882 66.6994 188.649 66.2702 189.488 65.8018C189.488 66.8304 189.488 67.773 189.488 68.7734C190.036 68.7734 190.543 68.7734 191.072 68.7734C191.072 69.4074 191.072 69.9839 191.072 70.6305C190.649 70.6305 190.219 70.6305 189.743 70.6312Z" fill="#3A4386"/>
<path d="M203.895 67.428C204.347 66.8155 204.779 66.2324 205.202 65.6428C205.335 65.4583 205.486 65.3767 205.723 65.3832C206.352 65.4005 206.983 65.3891 207.628 65.3891C208.186 66.157 208.742 66.9211 209.366 67.7784C208.676 67.7784 208.087 67.7924 207.502 67.7664C207.389 67.761 207.267 67.6112 207.176 67.5049C206.947 67.2354 206.733 66.9532 206.478 66.6336C206.23 66.9565 206.009 67.2608 205.767 67.5477C205.682 67.6487 205.548 67.767 205.432 67.7717C204.872 67.7944 204.31 67.7817 203.678 67.7817C203.765 67.6339 203.818 67.5443 203.895 67.428Z" fill="#3C4688"/>
<path d="M245.485 65.3894C246.029 65.3894 246.53 65.3802 247.029 65.3957C247.16 65.3997 247.342 65.4404 247.41 65.5317C247.95 66.2456 248.468 66.9762 249.05 67.782C248.388 67.782 247.816 67.792 247.244 67.7726C247.141 67.7693 247.022 67.6636 246.943 67.5754C246.688 67.2871 246.449 66.9855 246.163 66.6419C245.933 66.9447 245.706 67.2263 245.498 67.5212C245.366 67.7071 245.218 67.7974 244.979 67.7887C244.469 67.7706 243.958 67.7833 243.375 67.7833C243.464 67.6289 243.508 67.5339 243.568 67.4516C244.006 66.8549 244.458 66.2685 244.88 65.6612C245.03 65.447 245.192 65.3533 245.485 65.3894Z" fill="#3C4688"/>
<path d="M128.868 67.0164C128.359 66.4855 127.875 65.9793 127.337 65.417C128.267 65.417 129.112 65.417 130.021 65.417C130.382 66.1707 130.76 66.9609 131.171 67.8169C130.663 67.8169 130.218 67.8283 129.774 67.8089C129.665 67.8035 129.542 67.7179 129.455 67.6363C129.258 67.4484 129.079 67.2404 128.868 67.0164Z" fill="#3B4386"/>
<path d="M243.623 62.8423C243.634 62.7691 243.668 62.6803 243.702 62.68C244.525 62.6723 245.349 62.674 246.169 62.674C246.563 63.4414 246.943 64.1825 247.363 65.0013C246.829 65.0013 246.383 65.0142 245.938 64.992C245.83 64.9867 245.713 64.881 245.625 64.7958C244.962 64.1569 244.305 63.5115 243.623 62.8423Z" fill="#3C4486"/>
</svg>
