<svg width="15" height="15" viewBox="0 0 15 15" fill="none" xmlns="http://www.w3.org/2000/svg">
<path d="M5.625 3.375V5.625H3.375V3.375H5.625V3.375M6.75 2.25H2.25V6.75H6.75V2.25V2.25M5.625 9.35156V11.6016H3.375V9.35156H5.625V9.35156M6.75 8.22656H2.25V12.7266H6.75V8.22656V8.22656M11.6016 3.375V5.625H9.35156V3.375H11.6016V3.375M12.7266 2.25H8.22656V6.75H12.7266V2.25V2.25M8.22656 8.22656H9.35156V9.35156H8.22656V8.22656V8.22656M9.35156 9.35156H10.4766V10.4766H9.35156V9.35156V9.35156M10.4766 8.22656H11.6016V9.35156H10.4766V8.22656V8.22656M8.22656 10.4766H9.35156V11.6016H8.22656V10.4766V10.4766M9.35156 11.6016H10.4766V12.7266H9.35156V11.6016V11.6016M10.4766 10.4766H11.6016V11.6016H10.4766V10.4766V10.4766M11.6016 9.35156H12.7266V10.4766H11.6016V9.35156V9.35156M11.6016 11.6016H12.7266V12.7266H11.6016V11.6016V11.6016M14.2383 3.72656C13.8164 3.72656 13.5 3.41016 13.5 2.98828V1.47656H11.9883C11.5664 1.47656 11.25 1.16016 11.25 0.738281C11.25 0.316406 11.5664 0 11.9883 0H14.2383C14.6602 0 14.9766 0.316406 14.9766 0.738281V2.98828C14.9766 3.41016 14.6602 3.72656 14.2383 3.72656V3.72656M14.9766 14.2383V11.9883C14.9766 11.5664 14.6602 11.25 14.2383 11.25C13.8164 11.25 13.5 11.5664 13.5 11.9883V13.5H11.9883C11.5664 13.5 11.25 13.8164 11.25 14.2383C11.25 14.6602 11.5664 14.9766 11.9883 14.9766H14.2383C14.6602 14.9766 14.9766 14.6602 14.9766 14.2383V14.2383M0.738281 14.9766H2.98828C3.41016 14.9766 3.72656 14.6602 3.72656 14.2383C3.72656 13.8164 3.41016 13.5 2.98828 13.5H1.47656V11.9883C1.47656 11.5664 1.16016 11.25 0.738281 11.25C0.316406 11.25 0 11.5664 0 11.9883V14.2383C0 14.6602 0.316406 14.9766 0.738281 14.9766V14.9766M0 0.738281V2.98828C0 3.41016 0.316406 3.72656 0.738281 3.72656C1.16016 3.72656 1.47656 3.41016 1.47656 2.98828V1.47656H2.98828C3.41016 1.47656 3.72656 1.16016 3.72656 0.738281C3.72656 0.316406 3.41016 0 2.98828 0H0.738281C0.316406 0 0 0.316406 0 0.738281V0.738281" fill="#E5E7EB"/>
</svg>
