<svg width="1340" height="1112" viewBox="0 0 1340 1112" fill="none" xmlns="http://www.w3.org/2000/svg">
<path d="M591.038 649.975C578.433 629.396 566.399 608.818 553.368 588.88C536.99 563.744 519.757 539.177 506.939 511.905C495.119 486.556 488.638 459.924 485.576 432.083C481.874 399.47 487.998 368.424 498.181 337.734C503.236 322.567 507.295 306.972 507.58 290.88C508.007 270.443 502.168 251.36 493.41 233.202C489.92 226.01 486.146 218.89 482.372 211.555C483.084 211.555 483.867 211.342 484.366 211.555C511.924 223.02 538.414 236.264 561.699 255.347C594.1 281.979 613.54 315.66 618.524 357.814C621.444 382.309 619.735 406.662 615.89 430.801C611.902 456.008 606.917 481.002 602.289 506.138C598.515 526.859 596.093 547.794 597.09 568.942C597.945 586.53 602.075 603.264 612.044 618.359C628.138 603.477 640.671 586.316 649.429 566.521C663.6 534.62 667.303 501.011 665.736 466.333C664.241 432.937 655.909 401.108 646.011 369.492C637.537 342.148 629.989 314.52 626.642 286.038C624.008 263.038 623.651 239.967 625.432 216.896C627.71 187.131 633.336 158.079 642.949 129.881C652.135 102.894 666.163 78.8971 686.885 59.3152C702.623 44.433 720.496 32.3991 740.292 23.9255C760.658 15.167 781.665 8.04635 802.458 0.213603C802.957 -3.71039e-06 803.598 0.0712022 804.167 0C796.263 8.68721 788.145 17.0896 780.526 25.9905C762.866 46.5692 752.113 70.2811 749.621 97.6245C747.485 120.838 750.974 143.482 757.739 165.413C767.352 196.459 778.318 227.007 788.572 257.84C795.693 279.13 801.889 300.849 803.526 323.35C804.523 337.022 803.598 350.978 802.672 364.792C801.39 383.092 797.758 401.036 792.489 418.624C784.015 447.036 771.268 473.596 753.253 497.023C735.593 519.952 716.508 541.883 697.496 563.673C674.566 589.948 651.494 616.01 634.119 646.557C624.933 662.65 617.314 679.384 612.4 697.328C612.116 698.325 611.688 699.25 610.834 701.458C606.063 682.873 599.511 666.21 591.038 649.975Z" fill="#019D49"/>
<path d="M1264.18 756.358C1266.03 770.029 1267.67 783.274 1269.38 796.518C1269.73 796.518 1270.09 796.518 1270.45 796.589C1275.79 756.5 1281.13 716.482 1286.47 676.321C1304.34 676.321 1321.79 676.321 1339.52 676.321C1339.52 739.766 1339.52 803.069 1339.52 866.799C1327.56 866.799 1315.52 866.799 1303.13 866.799C1303.13 826.639 1303.13 786.621 1303.13 746.531C1302.78 746.531 1302.35 746.46 1301.99 746.389C1295.8 786.478 1289.6 826.568 1283.41 867.084C1274.36 867.084 1265.53 867.155 1256.7 866.942C1255.85 866.942 1254.5 865.162 1254.28 864.022C1250.58 841.094 1247.02 818.165 1243.46 795.308C1240.82 778.788 1238.33 762.197 1235.06 745.748C1235.06 785.98 1235.06 826.211 1235.06 866.799C1222.24 866.799 1209.85 866.799 1197.17 866.799C1197.17 803.497 1197.17 740.194 1197.17 676.464C1215.69 676.464 1234.27 676.464 1253.5 676.464C1256.99 702.881 1260.55 729.442 1264.18 756.358Z" fill="#374285"/>
<path d="M998.498 812.824C993.513 796.304 988.599 780.14 983.686 763.976C983.401 763.976 983.116 763.976 982.831 764.048C982.831 798.156 982.831 832.335 982.831 866.799C969.587 866.799 956.911 866.799 943.951 866.799C943.951 803.496 943.951 740.193 943.951 676.463C944.948 676.392 946.087 676.179 947.227 676.179C958.905 676.107 970.512 676.25 982.191 676.036C985.181 676.036 986.392 677.033 987.246 679.881C995.293 706.584 1003.48 733.215 1011.6 759.846C1013.02 764.475 1014.52 769.175 1016.87 773.732C1016.87 741.333 1016.87 709.005 1016.87 676.392C1029.9 676.392 1042.43 676.392 1055.25 676.392C1055.25 739.766 1055.25 803.14 1055.25 866.799C1041.86 866.799 1028.62 866.799 1015.02 866.799C1009.61 848.997 1004.12 831.124 998.498 812.824Z" fill="#364185"/>
<path d="M426.473 714.916C430.745 733.929 430.888 752.442 424.408 770.671C421.559 778.789 417.144 785.981 410.451 791.464C408.243 793.315 408.457 795.095 409.169 797.587C415.72 819.875 422.129 842.234 428.538 864.593C428.68 865.163 428.752 865.804 428.894 866.729C414.51 866.729 400.339 866.729 385.599 866.729C382.964 856.547 380.187 846.008 377.41 835.469C374.846 825.857 372.14 816.172 369.719 806.488C369.007 803.498 367.796 802.074 364.236 803.498C364.236 824.361 364.236 845.438 364.236 866.8C350.35 866.8 336.963 866.8 323.219 866.8C323.219 803.426 323.219 740.052 323.219 676.75C323.433 676.536 323.718 676.251 323.931 676.251C343.229 676.18 362.598 675.682 381.896 676.251C402.19 676.963 417.857 689.78 424.906 710.146C425.405 711.57 425.832 713.065 426.473 714.916ZM386.524 740.693C386.524 738.059 386.809 735.353 386.524 732.789C384.317 715.486 378.478 711.783 364.449 714.489C364.449 731.223 364.449 747.956 364.449 765.117C366.871 765.117 369.007 765.117 371.072 765.117C378.478 765.117 381.967 763.052 384.174 756.074C385.599 751.446 385.812 746.39 386.524 740.693Z" fill="#364185"/>
<path d="M759.804 939.503C768.349 953.815 771.625 969.41 772.55 985.502C773.334 998.462 773.476 1011.42 773.191 1024.31C772.835 1042.68 771.411 1060.84 763.293 1077.86C753.751 1097.8 738.085 1109.05 716.295 1111.47C702.195 1113.03 688.452 1111.32 675.99 1103.99C660.467 1094.95 651.779 1080.56 647.791 1063.62C645.157 1052.51 643.661 1040.9 643.305 1029.51C642.807 1012.56 643.02 995.543 644.302 978.667C645.798 959.797 651.423 942.137 665.167 928.181C673.427 919.85 683.467 914.937 694.932 913.085C713.447 910.094 731.035 912.159 746.132 924.265C751.33 928.395 755.175 934.162 759.804 939.503ZM696.926 947.62C688.666 952.89 686.458 961.506 685.461 970.264C682.542 995.899 683.254 1021.6 684.678 1047.24C685.034 1053.01 686.316 1058.85 688.096 1064.33C691.087 1074.01 698.493 1079.21 707.963 1079.14C717.505 1079 724.84 1074.51 727.617 1064.83C729.967 1056.5 731.534 1047.74 731.89 1039.12C732.459 1020.96 732.317 1002.73 731.961 984.506C731.819 977.527 730.893 970.407 729.255 963.571C725.196 947.051 713.304 941.141 696.926 947.62Z" fill="#029E49"/>
<path d="M437.296 813.181C434.519 781.636 432.383 750.376 439.789 719.544C443.848 702.597 452.25 687.999 468.059 679.17C488.923 667.421 521.395 670.767 537.559 694.835C547.813 710.002 551.943 727.021 552.94 744.893C553.724 758.423 553.866 772.023 553.652 785.553C553.225 804.707 551.16 823.648 542.188 841.094C526.735 871.428 493.053 877.409 468.486 864.521C454.6 857.186 446.625 844.654 441.64 830.128C439.789 824.716 438.72 819.091 437.296 813.181ZM509.716 810.19C509.93 806.772 510.357 803.425 510.357 800.079C510.428 781.067 510.642 762.125 510.215 743.185C510.072 735.565 508.862 727.875 507.224 720.47C505.728 713.705 500.459 710.145 494.264 710.073C488.14 710.002 483.084 713.705 481.232 720.327C479.879 725.027 478.811 729.94 478.74 734.782C478.384 756.5 478.028 778.289 478.384 800.007C478.526 808.339 480.093 816.741 482.087 824.859C483.511 830.626 488.353 833.119 494.477 833.047C500.673 832.976 504.803 829.986 506.725 824.431C508.221 820.159 508.79 815.531 509.716 810.19Z" fill="#364185"/>
<path d="M1070.92 823.933C1081.6 774.587 1092.21 725.596 1102.82 676.321C1104.24 676.25 1105.53 676.108 1106.88 676.108C1119.91 676.108 1132.94 676.179 1145.97 676.108C1148.61 676.037 1149.89 676.535 1150.6 679.597C1160.29 725.027 1170.11 770.386 1180.01 815.744C1183.5 831.979 1187.06 848.215 1190.55 864.45C1190.69 865.162 1190.76 865.945 1190.91 866.871C1176.59 866.871 1162.56 866.871 1148.18 866.871C1146.47 856.617 1144.62 846.506 1143.12 836.323C1142.55 832.549 1141.34 831.196 1137.36 831.339C1129.38 831.695 1121.4 831.623 1113.43 831.41C1110.51 831.339 1109.44 832.335 1109.01 835.184C1107.73 844.013 1106.09 852.772 1104.6 861.53C1104.31 863.31 1103.89 865.09 1103.46 866.871C1089.57 866.871 1075.97 866.871 1061.8 866.871C1064.86 852.487 1067.86 838.388 1070.92 823.933ZM1122.83 754.293C1120.41 768.321 1118.06 782.277 1115.57 796.661C1122.69 796.661 1129.17 796.661 1136.22 796.661C1132.87 776.652 1129.59 756.927 1126.32 737.132C1126.1 737.132 1125.89 737.061 1125.75 736.99C1124.82 742.472 1123.9 747.955 1122.83 754.293Z" fill="#364185"/>
<path d="M599.512 722.036C603.144 748.596 606.704 774.8 610.193 800.933C610.549 800.933 610.905 800.933 611.261 800.933C617.029 759.491 622.797 718.12 628.636 676.464C642.451 676.464 655.981 676.464 670.294 676.464C658.188 740.051 646.012 803.425 633.906 866.942C617.884 866.942 602.218 866.942 585.911 866.942C573.948 803.568 561.913 740.123 549.879 676.321C564.406 676.321 578.505 676.321 593.317 676.321C595.31 691.346 597.304 706.513 599.512 722.036Z" fill="#364185"/>
<path d="M206.08 676.25C206.721 679.027 207.148 681.733 207.148 684.439C207.219 693.838 207.219 703.237 207.219 713.135C189.702 713.135 172.54 713.135 155.023 713.135C155.023 726.095 155.023 738.485 155.023 751.373C170.404 751.373 185.785 751.373 201.451 751.373C201.451 763.834 201.451 775.797 201.451 788.187C186.07 788.187 170.689 788.187 155.023 788.187C155.023 802.001 155.023 815.317 155.023 829.131C172.896 829.131 190.77 829.131 208.928 829.131C208.928 841.806 208.928 854.053 208.928 866.728C177.169 866.728 145.267 866.728 113.081 866.728C113.081 803.283 113.081 739.909 113.081 676.179C144.128 676.179 174.89 676.179 206.08 676.25Z" fill="#374285"/>
<path d="M808.511 713.349C797.402 713.349 786.65 713.349 775.684 713.349C775.684 726.095 775.684 738.485 775.684 751.373C791.065 751.373 806.446 751.373 822.112 751.373C822.112 763.834 822.112 775.726 822.112 788.187C806.802 788.187 791.421 788.187 775.684 788.187C775.684 801.93 775.684 815.317 775.684 829.06C793.557 829.06 811.36 829.06 829.589 829.06C829.589 841.877 829.589 854.267 829.589 866.871C797.687 866.871 765.857 866.871 733.812 866.871C733.812 803.283 733.812 739.909 733.812 676.321C765.073 676.321 796.121 676.321 827.524 676.321C827.524 688.426 827.524 700.532 827.524 713.349C821.4 713.349 815.205 713.349 808.511 713.349Z" fill="#364185"/>
<path d="M0 710.573C0 699.037 0 687.929 0 676.821C0.569675 676.536 0.99694 676.251 1.4242 676.251C20.3659 676.18 39.3788 675.682 58.3917 676.251C77.3334 676.892 91.0056 686.861 98.1265 704.307C108.096 728.873 108.096 753.938 96.6311 778.148C88.7981 794.739 74.6987 802.43 56.6827 802.928C51.698 803.07 46.6421 802.928 41.0878 802.928C41.0878 824.432 41.0878 845.51 41.0878 866.8C27.202 866.8 13.8146 866.8 0 866.8C0 814.748 0 762.91 0 710.573ZM41.0878 719.616C41.0878 734.641 41.0878 749.737 41.0878 764.69C53.9767 766.399 59.6023 763.123 61.0265 751.374C62.0946 742.829 61.881 733.857 60.528 725.313C58.9614 715.272 51.1283 711.499 41.0878 714.703C41.0878 715.985 41.0878 717.337 41.0878 719.616Z" fill="#364184"/>
<path d="M411.305 1108.19C402.618 1108.19 394.358 1108.19 385.812 1108.19C385.812 1043.89 385.812 979.948 385.812 915.506C389.444 915.506 392.933 915.506 396.423 915.506C411.733 915.506 427.043 915.648 442.424 915.506C473.685 915.221 492.199 937.01 495.19 965.778C496.472 977.812 495.902 989.774 492.911 1001.45C486.787 1024.88 468.415 1039.33 444.418 1039.62C438.009 1039.69 431.6 1039.62 424.622 1039.62C424.622 1062.62 424.622 1085.19 424.622 1108.19C419.993 1108.19 415.863 1108.19 411.305 1108.19ZM455.598 973.326C454.245 967.7 453.817 961.648 451.325 956.592C449.616 953.174 445.486 949.827 441.854 948.902C436.514 947.62 430.674 948.617 424.835 948.617C424.835 968.199 424.835 987.353 424.835 1006.86C429.108 1006.86 433.096 1006.86 437.012 1006.86C445.13 1006.86 450.328 1003.94 452.536 995.969C454.458 988.92 454.672 981.443 455.598 973.326Z" fill="#019D49"/>
<path d="M617.314 990.485C609.054 1028.72 600.794 1066.61 592.605 1104.49C592.177 1106.48 591.964 1108.26 589.115 1108.26C575.301 1108.12 561.557 1108.19 547.315 1108.19C533.501 1044.03 519.757 980.089 505.872 915.789C519.829 915.789 533.43 915.789 547.387 915.789C554.935 959.795 562.483 1003.87 569.96 1047.88C570.316 1047.88 570.672 1047.88 571.028 1047.88C572.88 1036.77 574.802 1025.66 576.725 1014.62C582.279 982.653 587.762 950.752 593.459 918.851C593.673 917.57 595.524 915.718 596.664 915.647C608.698 915.433 620.804 915.505 633.479 915.505C628.067 940.641 622.726 965.349 617.314 990.485Z" fill="#029E49"/>
<path d="M284.766 763.407C284.766 798.085 284.766 832.335 284.766 866.799C270.738 866.799 257.208 866.799 243.251 866.799C243.251 816.029 243.251 765.33 243.251 714.061C233.851 714.061 224.95 714.061 215.622 714.061C215.622 701.315 215.622 689.067 215.622 676.464C247.452 676.464 279.425 676.464 311.754 676.464C311.754 688.64 311.754 701.03 311.754 713.776C302.924 713.776 294.237 713.776 284.766 713.776C284.766 730.367 284.766 746.674 284.766 763.407Z" fill="#354084"/>
<path d="M924.369 676.107C927.217 676.107 929.709 676.107 932.415 676.107C932.415 688.64 932.415 700.887 932.415 713.633C923.728 713.633 914.898 713.633 905.641 713.633C905.641 764.902 905.641 815.601 905.641 866.728C891.541 866.728 877.869 866.728 863.841 866.728C863.841 815.886 863.841 765.187 863.841 713.989C854.512 713.989 845.54 713.989 836.283 713.989C836.283 701.243 836.283 688.996 836.283 676.107C865.479 676.107 894.674 676.107 924.369 676.107Z" fill="#354084"/>
<path d="M954.775 1079.42C954.775 1089.11 954.775 1098.36 954.775 1107.91C926.719 1107.91 898.947 1107.91 870.962 1107.91C870.962 1043.82 870.962 980.019 870.962 915.861C883.993 915.861 896.953 915.861 910.269 915.861C910.269 968.839 910.269 1021.75 910.269 1075.36C912.263 1075.36 913.83 1075.36 915.397 1075.36C927.36 1075.36 939.323 1075.44 951.286 1075.29C954.134 1075.29 955.203 1076.15 954.775 1079.42Z" fill="#029E49"/>
<path d="M719.214 691.134C719.214 749.879 719.214 808.197 719.214 866.801C705.471 866.801 692.012 866.801 678.269 866.801C678.269 803.569 678.269 740.195 678.269 676.536C691.585 676.536 705.115 676.536 719.214 676.536C719.214 681.236 719.214 685.935 719.214 691.134Z" fill="#364185"/>
<path d="M800.038 1050.58C800.038 1005.44 800.038 960.721 800.038 915.79C813.212 915.79 825.816 915.79 838.776 915.79C838.776 979.805 838.776 1043.61 838.776 1107.83C826.172 1107.83 813.354 1107.83 800.038 1107.83C800.038 1088.89 800.038 1069.95 800.038 1050.58Z" fill="#009D48"/>
</svg>
