<svg width="2605" height="1286" viewBox="0 0 2605 1286" fill="none" xmlns="http://www.w3.org/2000/svg">
<path d="M1592.18 93.3042C1627 103.725 1657.69 120.5 1684.1 144.618C1705.27 163.961 1722.44 186.577 1736.19 211.783C1756.83 249.603 1769.23 290.179 1776.7 332.405C1780.56 354.205 1783.53 376.115 1784.32 398.278C1784.71 409.113 1785.64 419.942 1785.67 430.775C1785.81 484.924 1786.21 539.079 1785.61 593.222C1784.99 648.421 1777.3 702.648 1759.35 755.087C1746.74 791.907 1728.9 825.949 1703.18 855.384C1671.17 892.03 1631.27 916.087 1584.22 928.48C1553.36 936.608 1521.93 939.047 1490.23 937.789C1456.78 936.462 1424.26 930.101 1393.32 916.848C1367.34 905.721 1344.21 890.395 1323.76 870.762C1291.35 839.643 1269.8 801.846 1254.69 760.077C1242.59 726.654 1235.17 692.113 1231.1 656.792C1228.76 636.457 1226.91 616.129 1226.81 595.645C1226.56 541.774 1225.35 487.891 1226.1 434.035C1226.85 380.484 1232.96 327.459 1249.06 276.024C1261.49 236.319 1279.38 199.496 1306.26 167.369C1339.44 127.706 1381.56 102.555 1431.45 90.055C1452.08 84.8841 1473.09 82.5217 1494.38 81.7799C1527.43 80.6287 1559.83 84.0139 1592.18 93.3042ZM1526.17 223.4C1512.72 221.37 1499.3 221.298 1485.83 223.362C1460.32 227.272 1441.25 240.46 1428.29 262.71C1417.32 281.538 1411.97 302.227 1408.34 323.42C1403.36 352.423 1401.54 381.724 1401.42 411.106C1401.22 459.922 1401.26 508.74 1401.41 557.557C1401.49 582.413 1402.07 607.267 1402.32 632.123C1402.51 650.919 1404.36 669.566 1407.08 688.14C1410.11 708.92 1414.75 729.246 1423.79 748.39C1434.9 771.926 1452.09 788.345 1477.8 794.647C1491.47 797.998 1505.39 798.544 1519.43 797.101C1550.12 793.947 1572.72 779.084 1586.81 751.448C1593.86 737.617 1598.23 722.925 1601.55 707.844C1608.96 674.286 1610.73 640.107 1610.97 605.994C1611.44 537.651 1610.5 469.298 1610.26 400.949C1610.18 375.624 1608.23 350.468 1604.14 325.487C1600.78 304.964 1595.73 284.967 1585.84 266.422C1578.14 251.998 1567.65 240.343 1553.33 232.368C1545.27 227.874 1536.48 225.248 1526.17 223.4Z" fill="#EC1D24"/>
<path d="M306.045 627.466C297.172 627.466 289.024 627.466 280.328 627.466C280.328 726.141 280.328 823.948 280.328 922.183C224.068 922.183 168.383 922.183 112.31 922.183C112.31 647.242 112.31 372.486 112.31 96.7911C114.96 96.6683 117.726 96.4289 120.493 96.4282C196.385 96.4079 272.278 96.2923 348.17 96.513C363.334 96.5571 378.615 96.938 393.635 98.822C440.196 104.663 481.084 122.928 515.044 155.988C546.947 187.045 566.21 224.997 577.064 267.635C582.298 288.194 585.758 309.064 586.213 330.338C586.6 348.422 587.705 366.541 587.024 384.589C585.469 425.773 578.277 465.917 561.05 503.722C551.19 525.359 538.324 545.026 521.949 562.452C487.963 598.619 445.796 618.386 397.188 625.071C384.579 626.805 371.729 627.1 358.974 627.373C341.58 627.747 324.172 627.466 306.045 627.466ZM415.068 340.046C414.54 333.574 414.214 327.078 413.447 320.635C411.293 302.526 406.621 285.094 397.414 269.252C384.857 247.646 366.583 235.366 340.783 235.74C323.148 235.995 305.506 235.777 287.868 235.803C285.527 235.806 283.187 236.002 280.526 236.124C280.526 320.214 280.526 403.729 280.526 487.578C282.309 487.795 283.94 488.164 285.573 488.167C306.111 488.206 326.65 488.325 347.186 488.136C357.588 488.04 367.065 484.546 375.59 478.644C392.511 466.928 401.355 449.818 407.479 430.837C414.291 409.719 415.037 387.819 415.934 365.969C416.269 357.816 415.392 349.613 415.068 340.046Z" fill="#EC1D25"/>
<path d="M1064.63 96.4123C1104.01 96.4125 1142.66 96.4125 1180.89 96.4125C1181.48 97.0066 1181.66 97.1494 1181.79 97.331C1181.93 97.5259 1182.11 97.7572 1182.11 97.9727C1182.11 98.6893 1182.13 99.4264 1181.98 100.12C1122.41 373.076 1062.84 646.029 1003.23 918.977C1002.98 920.121 1002.36 921.183 1001.85 922.426C938.741 922.426 875.681 922.426 812.675 922.426C810.118 913.964 633.418 102.94 634.307 96.8221C692.907 96.8221 751.541 96.8221 810.622 96.8221C844.02 291.177 877.362 485.209 910.703 679.241C911.115 679.238 911.528 679.235 911.94 679.231C945.67 485.269 979.4 291.307 1013.29 96.4121C1030.19 96.4121 1047.05 96.4121 1064.63 96.4123Z" fill="#EC1D25"/>
<path d="M2310.8 654.242C2310.8 696.74 2310.8 738.513 2310.8 780.907C2374.59 780.907 2437.83 780.907 2500.89 780.907C2502.64 786.78 2503.31 903.406 2501.85 922.159C2381.91 922.159 2261.94 922.159 2141.53 922.159C2141.53 647.18 2141.53 372.264 2141.53 96.9326C2197.83 96.9326 2253.82 96.9326 2310.8 96.9326C2310.8 282.433 2310.8 467.975 2310.8 654.242Z" fill="#EC1C24"/>
<path d="M2053.59 459.855C2053.59 614.299 2053.59 768.017 2053.59 922.174C1997.11 922.174 1941.17 922.174 1884.79 922.174C1884.79 647.297 1884.79 372.504 1884.79 96.6344C1898.54 96.1559 1912.43 96.4804 1926.32 96.4224C1940.58 96.3629 1954.84 96.4092 1969.1 96.4092C1983.13 96.4092 1997.15 96.4092 2011.17 96.4092C2025.12 96.4092 2039.08 96.4092 2053.59 96.4092C2053.59 217.936 2053.59 338.533 2053.59 459.855Z" fill="#EC1D25"/>
<path d="M130.766 1134.4C130.766 1116.1 130.766 1098.53 130.766 1080.34C124.303 1080.34 118.598 1080.34 112.412 1080.34C112.412 1072.4 112.412 1065.09 112.412 1057.12C118.415 1057.12 124.125 1057.12 130.619 1057.12C130.619 1031.49 130.619 1006.51 130.619 981.085C133.496 980.936 135.598 980.734 137.701 980.732C161.382 980.709 185.067 980.466 208.744 980.8C226.681 981.053 243.715 984.643 257.596 997.297C269.982 1008.59 277.531 1022.68 280.844 1038.9C285.181 1060.14 285.63 1081.47 279.795 1102.56C274.674 1121.07 265.438 1136.83 248.116 1146.54C236.544 1153.03 223.9 1156.1 210.7 1156.2C185.329 1156.41 159.955 1156.26 134.582 1156.25C133.635 1156.25 132.687 1156.07 130.766 1155.88C130.766 1148.97 130.766 1142.05 130.766 1134.4ZM221.387 1123.32C233.177 1119.42 238.857 1110.27 241.893 1099.05C244.868 1088.04 245.612 1076.73 245.259 1065.41C244.915 1054.36 244.245 1043.31 239.488 1032.97C234.508 1022.14 226.373 1015.03 214.756 1012.76C199.542 1009.78 184.12 1011.53 168.397 1011.26C168.397 1026.68 168.397 1041.5 168.397 1057.23C181.381 1057.23 194.013 1057.23 206.77 1057.23C206.77 1065.25 206.77 1072.36 206.77 1080.38C193.756 1080.38 181.132 1080.38 168.353 1080.38C168.353 1096.15 168.353 1111.02 168.353 1126.58C185.955 1126.78 203.203 1127.22 221.387 1123.32Z" fill="#394286"/>
<path d="M1946.26 1130.05C1946.26 1112.41 1946.31 1095.49 1946.21 1078.57C1946.19 1074.99 1945.85 1071.36 1945.25 1067.83C1943.08 1054.86 1932.29 1049.13 1919.95 1054.13C1911.07 1057.73 1906.14 1064.56 1904.66 1073.67C1903.51 1080.77 1902.93 1088.03 1902.84 1095.22C1902.59 1113.83 1902.75 1132.44 1902.75 1151.05C1902.75 1152.47 1902.75 1153.89 1902.75 1155.77C1890.81 1155.77 1879.35 1155.77 1866.95 1155.77C1866.95 1153.46 1866.95 1151.14 1866.95 1148.81C1866.95 1125.13 1866.96 1101.44 1866.94 1077.76C1866.94 1075.1 1866.85 1072.45 1866.67 1069.8C1865.6 1053.99 1854.85 1050.51 1842.33 1053.56C1833.71 1055.66 1827.94 1061.46 1825.91 1070.18C1824.61 1075.77 1823.64 1081.56 1823.56 1087.28C1823.28 1107.57 1823.45 1127.88 1823.45 1148.18C1823.45 1150.57 1823.45 1152.95 1823.45 1155.8C1811.8 1155.8 1800.55 1155.8 1789.25 1155.8C1787.82 1150.78 1787.18 1045.98 1788.58 1029.08C1798.99 1029.08 1809.46 1029.08 1820.32 1029.08C1820.32 1033.85 1820.32 1038.38 1820.32 1044.01C1822.31 1042.59 1823.65 1041.85 1824.74 1040.83C1834.47 1031.82 1845.87 1026.2 1859.13 1025.85C1873.66 1025.46 1886.82 1029.35 1895.94 1041.92C1896.62 1042.86 1897.4 1043.72 1898.47 1045.02C1900.46 1043.19 1902.21 1041.63 1903.92 1040.03C1919.7 1025.16 1940.86 1021.97 1960.32 1030.19C1972.63 1035.39 1979.22 1045.4 1981.04 1058.55C1981.37 1060.94 1981.53 1063.37 1981.53 1065.77C1981.56 1094.29 1981.55 1122.81 1981.54 1151.33C1981.54 1152.74 1981.41 1154.14 1981.32 1155.88C1969.71 1155.88 1958.46 1155.88 1946.26 1155.88C1946.26 1147.48 1946.26 1139.13 1946.26 1130.05Z" fill="#384285"/>
<path d="M2093.99 1139.17C2082.94 1125.7 2078.77 1110.52 2078.63 1093.81C2078.52 1080.62 2079.64 1067.73 2085.63 1055.81C2094 1039.17 2107.34 1029.22 2126.02 1026.59C2143.16 1024.18 2157.96 1028.46 2170.07 1041.14C2170.88 1041.99 2171.83 1042.73 2173.62 1044.33C2173.62 1038.76 2173.62 1034.13 2173.62 1029.04C2185.08 1029.04 2195.81 1029.04 2206.99 1029.04C2207.12 1031.09 2207.34 1032.95 2207.34 1034.82C2207.36 1074.46 2207.5 1114.1 2207.25 1153.73C2207.19 1163.61 2205.69 1173.42 2201.43 1182.58C2197.37 1191.29 2190.79 1197.33 2182.2 1201.42C2173.55 1205.53 2164.28 1207.34 2154.9 1207.82C2142.15 1208.48 2129.34 1208.31 2116.75 1205.5C2105.86 1203.08 2096.23 1198.5 2089.43 1189.21C2084.22 1182.09 2082.13 1174.2 2083.51 1164.64C2096.81 1164.89 2109.7 1167.45 2123.3 1168.73C2124.6 1178.58 2131.9 1180.58 2139.98 1181.55C2147.09 1182.4 2154 1181.26 2160.56 1178.79C2167.54 1176.17 2171.23 1170.59 2171.47 1163.15C2171.71 1155.43 2171.52 1147.7 2171.52 1139.05C2169.89 1140.22 2168.69 1140.8 2167.85 1141.72C2148.79 1162.6 2112.41 1160.39 2095.88 1141.09C2095.41 1140.54 2094.86 1140.06 2093.99 1139.17ZM2118.28 1069.45C2113.9 1082.36 2113.65 1095.4 2117.41 1108.45C2119.95 1117.29 2125.34 1123.83 2134.14 1127.01C2148.44 1132.18 2164.26 1124.34 2169.57 1109.22C2173.93 1096.79 2173.75 1084.14 2169.66 1071.63C2167.48 1064.96 2163.11 1059.86 2157.18 1056.18C2146.33 1049.45 2126.55 1051.07 2118.28 1069.45Z" fill="#394386"/>
<path d="M829.541 1174.42C829.466 1171.37 829.466 1168.95 829.536 1166.54C829.549 1166.11 829.852 1165.68 830.416 1164.24C843.138 1165.71 856.143 1167.21 869.465 1168.75C871.161 1179.63 879.427 1181.32 887.85 1181.61C893.512 1181.8 899.41 1180.9 904.889 1179.36C913.243 1177.02 917.534 1170.96 917.829 1162.23C918.08 1154.79 917.88 1147.34 917.88 1138.75C915.761 1140.44 914.242 1141.4 913.028 1142.66C893.396 1163.01 855.127 1161.17 837.416 1135.79C829.459 1124.39 825.309 1111.8 825.051 1097.9C824.817 1085.33 824.693 1072.74 829.575 1060.83C837.387 1041.77 851.019 1029.77 871.781 1026.63C889.172 1024 904.2 1028.47 916.422 1041.44C917.369 1042.45 918.52 1043.26 920.603 1045.04C920.603 1039.07 920.603 1034.2 920.603 1028.97C931.664 1028.97 941.937 1028.97 952.723 1028.97C952.881 1030.87 953.166 1032.7 953.167 1034.54C953.193 1074.89 953.209 1115.23 953.168 1155.57C953.16 1163.82 951.722 1171.82 948.784 1179.57C944.49 1190.89 936.452 1198.37 925.344 1202.7C916.04 1206.32 906.299 1207.71 896.362 1207.97C885.01 1208.27 873.683 1207.88 862.574 1205.43C847.879 1202.2 836.223 1194.89 830.822 1179.97C830.254 1178.4 830.026 1176.7 829.541 1174.42ZM873.104 1057.96C867.115 1062.65 863.739 1068.94 862.447 1076.27C860.551 1087.04 860.376 1097.83 863.505 1108.43C864.247 1110.95 865.394 1113.4 866.699 1115.69C872.527 1125.9 884.54 1130.81 895.858 1127.67C906.534 1124.71 913.322 1117.54 916.414 1107.19C919.647 1096.37 919.366 1085.28 916.613 1074.37C911.406 1053.73 889.026 1046.66 873.104 1057.96Z" fill="#384285"/>
<path d="M534.63 1029.08C552.945 1024.32 570.639 1024.23 587.514 1031.87C608.782 1041.49 621.627 1058 624.991 1081.42C625.158 1082.59 625.477 1083.73 625.725 1084.88C635.048 1082.87 640.423 1075.4 640.877 1063.57C635.881 1063.57 630.89 1063.57 624.897 1063.57C624.897 1057.38 624.897 1051.69 624.897 1046C624.897 1040.48 624.897 1034.96 624.897 1029.02C636.648 1029.02 647.885 1029.02 659.63 1029.02C659.811 1030.52 660.183 1032.11 660.167 1033.69C660.071 1043.59 659.911 1053.48 659.731 1063.38C659.399 1081.64 649.805 1093.49 633.685 1100.74C631.058 1101.92 628.311 1102.84 626.389 1103.58C623.233 1111.54 621.143 1119.35 617.266 1126.14C605.654 1146.46 587.601 1157.3 564.351 1159.08C551.488 1160.06 538.879 1158.61 526.838 1153.32C507.883 1144.98 495.691 1131.23 491.367 1110.74C488.852 1098.82 488.104 1086.96 491.21 1075.04C497.209 1052 511.241 1036.53 534.63 1029.08ZM567.095 1129.81C577.376 1126.04 583.791 1118.54 586.957 1108.34C590.1 1098.22 590.068 1087.86 587.276 1077.66C583.497 1063.84 572.498 1054.74 559.382 1054.2C545.07 1053.6 533.633 1060.96 528.684 1074.77C524.792 1085.64 524.493 1096.83 527.833 1108C532.25 1122.78 545.217 1134.97 567.095 1129.81Z" fill="#394285"/>
<path d="M340.127 1157.22C322.315 1151.47 315.545 1138.18 313.561 1121.46C313.164 1118.12 313.075 1114.72 313.07 1111.34C313.031 1086.21 313.049 1061.08 313.049 1035.95C313.049 1033.81 313.049 1031.66 313.049 1029.05C324.719 1029.05 335.958 1029.05 347.986 1029.05C348.102 1031.17 348.333 1033.47 348.337 1035.76C348.366 1053.88 348.237 1072.01 348.407 1090.13C348.481 1098.06 348.889 1106.01 349.586 1113.92C350.783 1127.51 360.618 1135.05 374.077 1132.71C386.081 1130.62 396.813 1123.08 397.117 1105.63C397.511 1082.93 397.491 1060.22 397.644 1037.52C397.662 1034.9 397.647 1032.27 397.647 1029.12C409.533 1029.12 420.985 1029.12 433.196 1029.12C433.196 1049.43 433.196 1069.84 433.196 1090.31C451.646 1088.8 462.261 1076.2 460.523 1063.59C455.407 1063.59 450.183 1063.59 444.061 1063.59C444.061 1057.24 444.061 1051.52 444.061 1045.81C444.061 1040.31 444.061 1034.82 444.061 1028.97C456.24 1028.97 467.689 1028.97 479.751 1028.97C479.617 1043.97 481.252 1058.68 478.197 1073.17C475.5 1085.95 466.986 1094.4 455.331 1099.39C448.548 1102.3 441.232 1103.97 433.597 1106.37C433.597 1122.42 433.597 1138.78 433.597 1156.05C427.681 1156.13 422.244 1156.22 416.807 1156.26C411.529 1156.29 406.25 1156.27 400.197 1156.27C400.197 1150.95 400.197 1146.06 400.197 1139.26C383.237 1158.95 363.055 1162.12 340.127 1157.22Z" fill="#394286"/>
<path d="M1613.89 1059.94C1614.23 1085.21 1614.42 1109.85 1614.59 1134.49C1614.63 1141.45 1614.59 1148.42 1614.59 1155.83C1602.88 1155.83 1591.64 1155.83 1579.47 1155.83C1579.41 1153.69 1579.3 1151.39 1579.3 1149.1C1579.28 1126.87 1579.35 1104.63 1579.24 1082.4C1579.22 1077.61 1578.85 1072.79 1578.22 1068.05C1577.18 1060.3 1572.63 1055.03 1565.09 1053.44C1549.7 1050.18 1535.23 1056.48 1531.73 1073.87C1530.6 1079.5 1530.13 1085.33 1530.07 1091.08C1529.87 1110.17 1529.99 1129.26 1529.99 1148.35C1529.99 1150.72 1529.99 1153.08 1529.99 1155.85C1517.91 1155.85 1506.46 1155.85 1494.59 1155.85C1494.59 1097.74 1494.59 1039.84 1494.59 980.948C1500.12 980.872 1505.79 980.764 1511.46 980.726C1517.25 980.687 1523.04 980.717 1529.84 980.717C1530.23 1001.36 1529.8 1021.75 1530.09 1043.18C1533.11 1040.75 1535.45 1038.9 1537.75 1037C1554.09 1023.48 1579.07 1022.2 1597.45 1033.16C1607.22 1038.99 1611.8 1048.42 1613.89 1059.94Z" fill="#394286"/>
<path d="M1300.89 1156.26C1293.2 1156.26 1286.21 1156.26 1278.6 1156.26C1277.17 1152.28 1275.76 1148.35 1274.14 1143.83C1271.61 1145.64 1269.53 1147.19 1267.39 1148.64C1249.46 1160.83 1230.18 1163.14 1210.42 1154.51C1195.68 1148.08 1188.93 1135.56 1189.67 1119.54C1190.37 1104.37 1197.8 1093.12 1212.26 1088.18C1223.58 1084.3 1235.51 1082.2 1247.17 1079.32C1254.87 1077.43 1262.57 1075.58 1270.78 1073.58C1270.78 1070.46 1271.04 1067.81 1270.73 1065.24C1270.1 1060.08 1267.58 1056.28 1262.38 1054.51C1254.59 1051.87 1246.64 1052.09 1238.82 1053.7C1234.23 1054.64 1230.74 1057.92 1228.37 1062.09C1227.31 1063.97 1226.39 1065.92 1225.15 1068.33C1214.81 1066.55 1204.45 1064.76 1193.37 1062.85C1196.86 1048.14 1204.44 1037.31 1217.9 1031.43C1230.28 1026.01 1243.59 1025.55 1256.9 1025.86C1259.53 1025.92 1262.18 1026.21 1264.78 1026.64C1269.98 1027.49 1275.3 1028.05 1280.32 1029.56C1297.49 1034.72 1305.32 1045.11 1305.6 1062.98C1305.82 1076.43 1305.63 1089.88 1305.65 1103.33C1305.7 1128.74 1305.05 1134.05 1313.19 1156.26C1309.2 1156.26 1305.39 1156.26 1300.89 1156.26ZM1270.11 1096.8C1258.86 1099.32 1247.6 1101.83 1236.36 1104.39C1235.45 1104.6 1234.62 1105.2 1233.75 1105.62C1221.18 1111.84 1224.46 1125.03 1231.39 1130.64C1235.99 1134.37 1241.29 1135.09 1247.03 1134.55C1261.92 1133.13 1270.78 1123.66 1270.82 1108.85C1270.83 1105.23 1270.76 1101.6 1270.11 1096.8Z" fill="#394285"/>
<path d="M2235.04 1137.06C2229.84 1122.86 2230.95 1110.01 2240.06 1098.3C2245.18 1091.72 2252.29 1088.11 2260.11 1086.15C2272.01 1083.15 2284.06 1080.7 2296.02 1077.9C2301.82 1076.54 2307.56 1074.91 2313.06 1073.47C2314.56 1059.37 2309.34 1053.28 2296.03 1052.76C2294.58 1052.7 2293.12 1052.85 2291.68 1052.73C2280.11 1051.79 2272.05 1056.44 2267.83 1068.34C2257.27 1066.53 2246.71 1064.72 2235.6 1062.82C2239.42 1048.4 2246.56 1037.38 2259.91 1031.57C2272.77 1025.98 2286.53 1025.25 2300.32 1026.02C2306.55 1026.37 2312.83 1027.07 2318.89 1028.48C2323.74 1029.62 2328.51 1031.64 2332.9 1034.02C2343.54 1039.77 2347.61 1049.67 2347.96 1061.08C2348.46 1077.49 2348.67 1093.92 2348.39 1110.34C2348.14 1125.4 2348.45 1140.23 2355.31 1154.11C2355.49 1154.47 2355.27 1155.03 2355.2 1155.88C2344 1155.88 2332.76 1155.88 2321.04 1155.88C2319.71 1152.28 2318.31 1148.51 2316.56 1143.8C2314.21 1145.48 2312.14 1146.92 2310.12 1148.41C2296.71 1158.31 2281.57 1160.93 2265.46 1158.57C2252.05 1156.6 2241.52 1150.03 2235.04 1137.06ZM2287.72 1134.81C2309.42 1131.9 2316.66 1119.05 2312.67 1096.32C2306.37 1097.76 2300.06 1099.1 2293.81 1100.66C2288.24 1102.04 2282.53 1103.17 2277.22 1105.26C2266.52 1109.48 2264.52 1120.74 2272.41 1129.12C2276.37 1133.33 2281.45 1134.26 2287.72 1134.81Z" fill="#394285"/>
<path d="M1689.3 1129.39C1693.88 1130.88 1697.93 1132.7 1702.13 1133.16C1710.66 1134.08 1717.67 1131 1722.13 1123.31C1723.45 1121.03 1724.54 1118.62 1726.16 1115.42C1737.47 1117.23 1748.96 1119.07 1761.01 1121C1755.08 1138.63 1744.06 1150.38 1727.24 1155.84C1710.76 1161.2 1693.88 1160.78 1677.41 1155.52C1660.36 1150.07 1649.18 1138 1643.6 1121.33C1636.99 1101.55 1637.02 1081.39 1644.91 1061.96C1653.31 1041.3 1669.14 1029.68 1691.35 1026.53C1702.87 1024.9 1714.02 1026.18 1724.75 1030.03C1740.09 1035.53 1750.73 1046.3 1756.78 1061.48C1761.96 1074.46 1763.26 1087.96 1762.24 1102.46C1733.35 1102.46 1704.71 1102.46 1675.7 1102.46C1676.59 1113.64 1679.47 1122.96 1689.3 1129.39ZM1680.87 1081.77C1696.22 1081.77 1711.58 1081.77 1726.91 1081.77C1728.01 1075.84 1726.24 1071.05 1724.22 1066.49C1719.45 1055.72 1707.13 1050.27 1695.16 1053.28C1684.68 1055.91 1675.76 1068.09 1676.46 1078.7C1676.6 1080.77 1677.47 1081.79 1680.87 1081.77Z" fill="#384285"/>
<path d="M2466.96 1121.35C2466.96 1108.55 2467.09 1096.46 2466.9 1084.39C2466.82 1079.11 2466.37 1073.81 2465.56 1068.59C2464.13 1059.26 2457.05 1053.39 2447.65 1052.71C2434.44 1051.76 2419.88 1058.79 2418.17 1079.5C2417.83 1083.58 2417.7 1087.69 2417.69 1091.79C2417.64 1110.63 2417.67 1129.48 2417.67 1148.32C2417.67 1150.69 2417.67 1153.06 2417.67 1155.83C2405.61 1155.83 2394.15 1155.83 2382.28 1155.83C2382.28 1113.55 2382.28 1071.43 2382.28 1028.95C2392.93 1028.95 2403.24 1028.95 2414.32 1028.95C2414.32 1034.01 2414.32 1039.18 2414.32 1046.01C2417.06 1043.63 2418.59 1042.35 2420.06 1041C2436.98 1025.57 2456.36 1022.18 2477.78 1029.43C2492.73 1034.49 2499.88 1045.71 2501.75 1060.8C2502.17 1064.15 2502.24 1067.55 2502.24 1070.92C2502.28 1096.77 2502.26 1122.62 2502.26 1148.47C2502.26 1150.83 2502.26 1153.19 2502.26 1155.9C2490.39 1155.9 2479.15 1155.9 2466.96 1155.9C2466.96 1144.58 2466.96 1133.33 2466.96 1121.35Z" fill="#394285"/>
<path d="M677.586 1119.9C677.586 1089.26 677.586 1059.34 677.586 1029.01C688.724 1029.01 699.211 1029.01 710.237 1029.01C710.237 1034.24 710.237 1039.24 710.237 1044.6C713.601 1044.52 714.674 1042.07 716.182 1040.54C731.998 1024.5 758.416 1021.84 777.989 1031.48C791.164 1037.96 797.066 1049.36 797.329 1063.12C797.914 1093.79 797.511 1124.48 797.511 1156.17C792.093 1156.2 786.402 1156.24 780.712 1156.26C774.962 1156.28 769.212 1156.26 762.69 1156.26C762.69 1153.59 762.69 1151.5 762.69 1149.4C762.69 1131.51 762.786 1113.62 762.645 1095.73C762.586 1088.28 762.097 1080.82 761.674 1073.38C760.678 1055.82 747.991 1049.6 732.811 1053.81C723.17 1056.49 716.479 1062.97 714.807 1073.47C714.279 1076.79 713.517 1080.12 713.45 1083.45C713.014 1105.17 712.737 1126.88 712.417 1148.6C712.385 1150.77 712.412 1152.94 712.412 1156.15C706.55 1156.19 700.871 1156.24 695.192 1156.26C689.653 1156.28 684.114 1156.26 677.586 1156.26C677.586 1144.13 677.586 1132.38 677.586 1119.9Z" fill="#384285"/>
<path d="M1094.8 1138.5C1090.68 1144.5 1086.88 1150.08 1082.9 1155.93C1069.34 1155.93 1055.7 1155.93 1040.94 1155.93C1056.88 1133.89 1072.35 1112.51 1088.08 1090.77C1073.08 1070.36 1058.18 1050.09 1042.38 1028.59C1053.1 1028.59 1062.19 1028.55 1071.27 1028.6C1076.09 1028.63 1081.69 1027.34 1085.5 1029.36C1089.31 1031.38 1091.39 1036.73 1094.09 1040.71C1098.96 1047.87 1103.74 1055.1 1109.05 1063.04C1115.44 1054.05 1122.02 1045.99 1127.2 1037.11C1131.32 1030.07 1136.38 1027.91 1144.17 1028.43C1154.01 1029.09 1163.92 1028.59 1175.34 1028.59C1160.35 1049.62 1145.29 1069.1 1130.66 1089.35C1146.64 1111.34 1162.48 1133.14 1178.85 1155.68C1176.72 1155.92 1175.22 1156.24 1173.72 1156.24C1162.85 1156.28 1151.97 1156.05 1141.1 1156.37C1136.67 1156.5 1134.16 1154.89 1131.81 1151.23C1125.69 1141.69 1119.12 1132.44 1112.7 1123.09C1111.63 1121.54 1110.41 1120.08 1108.95 1118.17C1104.15 1125.07 1099.63 1131.58 1094.8 1138.5Z" fill="#394285"/>
<path d="M1450.77 1056.19C1449.26 1056.58 1448.11 1056.75 1447.69 1057.39C1447.23 1058.11 1447.33 1059.26 1447.34 1060.21C1447.48 1080.27 1447.5 1100.33 1447.85 1120.38C1448 1128.89 1452 1131.74 1460.58 1130.11C1463.64 1129.52 1466.66 1128.64 1470.55 1127.68C1472.94 1136.03 1472.42 1144.87 1474.17 1153.47C1469.45 1157.19 1464.05 1157.81 1458.96 1158.46C1450.61 1159.54 1442.16 1160.07 1433.79 1157.82C1419.69 1154.02 1412.9 1146.06 1412.54 1131.5C1412 1109.3 1411.83 1087.1 1411.51 1064.89C1411.47 1062.27 1411.51 1059.65 1411.51 1056.23C1406.08 1056.23 1401.15 1056.23 1395.9 1056.23C1395.9 1046.82 1395.9 1038.22 1395.9 1028.8C1400.91 1028.8 1405.84 1028.8 1411.27 1028.8C1411.27 1020.12 1411.27 1012.23 1411.27 1003.95C1422.97 997.396 1434.44 990.978 1446.97 983.973C1446.97 999.355 1446.97 1013.45 1446.97 1028.41C1455.15 1028.41 1462.73 1028.41 1470.64 1028.41C1470.64 1037.89 1470.64 1046.51 1470.64 1056.18C1464.32 1056.18 1457.89 1056.18 1450.77 1056.19Z" fill="#3A4386"/>
<path d="M1662.2 1008.29C1668.96 999.131 1675.41 990.412 1681.74 981.595C1683.72 978.837 1685.98 977.616 1689.52 977.713C1698.92 977.972 1708.34 977.801 1717.98 977.801C1726.32 989.284 1734.62 1000.71 1743.94 1013.53C1733.63 1013.53 1724.84 1013.74 1716.09 1013.35C1714.4 1013.27 1712.58 1011.03 1711.23 1009.44C1707.8 1005.41 1704.6 1001.19 1700.79 996.412C1697.09 1001.24 1693.79 1005.79 1690.17 1010.08C1688.91 1011.59 1686.9 1013.36 1685.17 1013.43C1676.8 1013.77 1668.41 1013.58 1658.96 1013.58C1660.27 1011.37 1661.06 1010.03 1662.2 1008.29Z" fill="#3C4688"/>
<path d="M2283.57 977.802C2291.69 977.802 2299.17 977.665 2306.63 977.896C2308.59 977.956 2311.3 978.565 2312.33 979.93C2320.39 990.606 2328.13 1001.53 2336.83 1013.58C2326.94 1013.58 2318.39 1013.73 2309.85 1013.44C2308.3 1013.39 2306.52 1011.81 2305.35 1010.49C2301.54 1006.18 2297.96 1001.67 2293.7 996.531C2290.25 1001.06 2286.87 1005.27 2283.76 1009.68C2281.79 1012.46 2279.57 1013.81 2276 1013.68C2268.38 1013.41 2260.75 1013.6 2252.04 1013.6C2253.37 1011.29 2254.02 1009.87 2254.93 1008.64C2261.46 999.716 2268.22 990.948 2274.53 981.867C2276.76 978.663 2279.19 977.263 2283.57 977.802Z" fill="#3C4688"/>
<path d="M541.301 1002.13C533.7 994.191 526.464 986.621 518.426 978.213C532.324 978.213 544.954 978.213 558.527 978.213C563.921 989.483 569.575 1001.3 575.699 1014.1C568.115 1014.1 561.469 1014.27 554.844 1013.98C553.203 1013.9 551.357 1012.62 550.075 1011.4C547.119 1008.59 544.451 1005.48 541.301 1002.13Z" fill="#3B4386"/>
<path d="M2255.75 939.719C2255.91 938.624 2256.42 937.297 2256.93 937.292C2269.23 937.176 2281.54 937.202 2293.79 937.202C2299.67 948.678 2305.35 959.76 2311.63 972.004C2303.65 972.004 2296.98 972.197 2290.34 971.865C2288.72 971.785 2286.98 970.204 2285.66 968.931C2275.75 959.376 2265.94 949.725 2255.75 939.719Z" fill="#3C4486"/>
</svg>
